<?xml version="1.0" encoding="utf-8"?>
<!-- Generator: Adobe Illustrator 19.0.0, SVG Export Plug-In . SVG Version: 6.00 Build 0)  -->
<svg version="1.1" xmlns="http://www.w3.org/2000/svg" xmlns:xlink="http://www.w3.org/1999/xlink" x="0px" y="0px"
	 viewBox="0 0 230.5 344.5" style="enable-background:new 0 0 230.5 344.5;" xml:space="preserve">
<style type="text/css">
	.st0{fill:none;stroke:#E6E6E6;stroke-width:0.5;stroke-miterlimit:10;}
	.st1{fill:none;stroke:#E6E7E8;stroke-width:0.5;stroke-miterlimit:10;}
	.st2{fill:#646363;}
	.st3{font-family:'ProximaNova-Bold';}
	.st4{font-size:8.7022px;}
	.st5{fill:#193256;}
	.st6{letter-spacing:-1;}
</style>
<g id="Layer_1">
	<line class="st0" x1="224.5" y1="316.4" x2="224.5" y2="0.9"/>
	<line class="st0" x1="184.9" y1="315.7" x2="184.9" y2="0"/>
	<line class="st0" x1="106.1" y1="315.8" x2="106.1" y2="1.3"/>
	<line class="st0" x1="145.5" y1="315.8" x2="145.5" y2="0"/>
	<line class="st1" x1="66.6" y1="316.2" x2="224.5" y2="316.2"/>
	<text transform="matrix(1 0 0 1.0342 63.8774 326.3355)" class="st2 st3 st4">0</text>
	<text transform="matrix(1 0 0 1.0342 143.6943 326.3453)" class="st2 st3 st4">1</text>
	<text transform="matrix(1 0 0 1.0342 179.3994 326.3004)" class="st2 st3 st4">1.5</text>
	<text transform="matrix(1 0 0 1.0342 222.0918 326.6871)" class="st2 st3 st4">2</text>
	<text transform="matrix(1 0 0 1.0342 99.687 326.6871)"><tspan x="0" y="0" class="st2 st3 st4">0</tspan><tspan x="5.2" y="0" class="st2 st3 st4">.5</tspan></text>
	<text transform="matrix(1 0 0 1.0342 65.3394 344.4801)" class="st2 st3 st4">IDPs in millions</text>
	<line class="st0" x1="66.6" y1="316.2" x2="66.6" y2="0"/>
</g>
<g id="myanmar">
	<g>
		<path class="st5" d="M74.5,310.3h-4c-2.2,0-4-1.8-4-4v-0.8c0-2.2,1.8-4,4-4h4c2.2,0,4,1.8,4,4v0.8
			C78.5,308.6,76.7,310.3,74.5,310.3"/>
		<text transform="matrix(1 0 0 1.0342 16.4551 308.0533)" class="st2 st3 st4">Myanmar</text>
	</g>
</g>
<g id="mozambique">
	<g>
		<path class="st5" d="M86.5,285.2H70.6c-2.2,0-4-1.8-4-4v-0.8c0-2.2,1.8-4,4-4h15.9c2.2,0,4,1.8,4,4v0.8
			C90.4,283.4,88.7,285.2,86.5,285.2"/>
		<text transform="matrix(1 0 0 1.0342 2.4097 282.9166)" class="st2 st3 st4">Mozambique</text>
	</g>
</g>
<g id="iraq">
	<g>
		<path class="st5" d="M91.8,260.1H70.6c-2.2,0-4-1.8-4-4v-0.8c0-2.2,1.8-4,4-4h21.3c2.2,0,4,1.8,4,4v0.8
			C95.8,258.3,94,260.1,91.8,260.1"/>
		<text transform="matrix(1 0 0 1.0342 38.063 257.7789)" class="st2 st3 st4">Iraq</text>
	</g>
</g>
<g id="colombia">
	<g>
		<path class="st5" d="M144.6,209.6h-74c-2.2,0-4-1.8-4-4v-0.8c0-2.2,1.8-4,4-4h74c2.2,0,4,1.8,4,4v0.8
			C148.5,207.8,146.8,209.6,144.6,209.6"/>
		<text transform="matrix(1 0 0 1.0342 15.7852 207.3346)" class="st2 st3 st4">Colombia</text>
	</g>
</g>
<g id="southsudan">
	<g>
		<path class="st5" d="M111.6,234.9h-41c-2.2,0-4-1.8-4-4v-0.8c0-2.2,1.8-4,4-4h41c2.2,0,4,1.8,4,4v0.8
			C115.6,233.2,113.8,234.9,111.6,234.9"/>
		<text transform="matrix(1 0 0 1.0342 2.8013 232.6422)" class="st2 st3 st4">South Sudan</text>
	</g>
</g>
<g id="sudan">
	<g>
		<path class="st5" d="M145.1,185.3H70.6c-2.2,0-4-1.8-4-4v-0.8c0-2.2,1.8-4,4-4h74.5c2.2,0,4,1.8,4,4v0.8
			C149.1,183.5,147.3,185.3,145.1,185.3"/>
		<text transform="matrix(1 0 0 1.0342 28.2729 182.9625)" class="st2 st3 st4">Sudan</text>
	</g>
</g>
<g id="somalia">
	<g>
		<path class="st5" d="M145.8,160.4H70.6c-2.2,0-4-1.8-4-4v-0.8c0-2.2,1.8-4,4-4h75.2c2.2,0,4,1.8,4,4v0.8
			C149.8,158.6,148,160.4,145.8,160.4"/>
		<text transform="matrix(1 0 0 1.0342 21.9116 158.1134)" class="st2 st3 st4">Somalia</text>
	</g>
</g>
<g id="ethiopia">
	<g>
		<path class="st5" d="M168.5,109.6h-98c-2.2,0-4-1.8-4-4v-0.8c0-2.2,1.8-4,4-4h98c2.2,0,4,1.8,4,4v0.8
			C172.5,107.8,170.7,109.6,168.5,109.6"/>
		<text transform="matrix(1 0 0 1.0342 21.1196 107.2726)" class="st2 st3 st4">Ethiopia</text>
	</g>
</g>
<g id="nigeria">
	<g>
		<path class="st5" d="M151.3,135.4H70.6c-2.2,0-4-1.8-4-4v-0.8c0-2.2,1.8-4,4-4h80.8c2.2,0,4,1.8,4,4v0.8
			C155.3,133.7,153.5,135.4,151.3,135.4"/>
		<text transform="matrix(1 0 0 1.0342 24.8877 133.1563)" class="st2 st3 st4">Nigeria</text>
	</g>
</g>
<g id="drcongo">
	<g>
		<text transform="matrix(1 0 0 1.0342 13.2217 32.4859)" class="st2 st3 st4">DR Congo</text>
		<path class="st5" d="M214.7,34.8H70.6c-2.2,0-4-1.8-4-4V30c0-2.2,1.8-4,4-4h144.1c2.2,0,4,1.8,4,4v0.8
			C218.7,33,216.9,34.8,214.7,34.8"/>
	</g>
</g>
<g id="syria">
	<g>
		<text transform="matrix(1 0 0 1.0342 33.7114 57.9977)"><tspan x="0" y="0" class="st2 st3 st4">S</tspan><tspan x="5.2" y="0" class="st2 st3 st4">yria</tspan></text>
		<path class="st5" d="M195.3,60.3H70.6c-2.2,0-4-1.8-4-4v-0.8c0-2.2,1.8-4,4-4h124.8c2.2,0,4,1.8,4,4v0.8
			C199.3,58.5,197.5,60.3,195.3,60.3"/>
	</g>
</g>
<g id="yemen">
	<g>
		<path class="st5" d="M169.8,84.6H70.6c-2.2,0-4-1.8-4-4v-0.8c0-2.2,1.8-4,4-4h99.3c2.2,0,4,1.8,4,4v0.8
			C173.8,82.9,172,84.6,169.8,84.6"/>
		<text transform="matrix(1 0 0 1.0342 26.7847 82.3424)"><tspan x="0" y="0" class="st2 st3 st4 st6">Y</tspan><tspan x="4.5" y="0" class="st2 st3 st4">emen</tspan></text>
	</g>
</g>
<g id="afghanistan">
	<g>
		<text transform="matrix(1 0 0 1.0342 5.8076 7.0069)"><tspan x="0" y="0" class="st2 st3 st4">A</tspan><tspan x="5.8" y="0" class="st2 st3 st4">fghanistan</tspan></text>
		<path class="st5" d="M218.5,9.3H70.6c-2.2,0-4-1.8-4-4V4.5c0-2.2,1.8-4,4-4h147.9c2.2,0,4,1.8,4,4v0.8
			C222.5,7.5,220.7,9.3,218.5,9.3"/>
	</g>
</g>
</svg>
