<?xml version="1.0" encoding="UTF-8" standalone="no"?>
<!-- Created with Inkscape (http://www.inkscape.org/) -->

<svg
   version="1.1"
   id="svg25"
   width="307.36533"
   height="524.40802"
   viewBox="0 0 307.36533 524.40802"
   sodipodi:docname="chart1.svg"
   inkscape:version="1.2.1 (0f2f062aeb, 2022-09-21, custom)"
   xmlns:inkscape="http://www.inkscape.org/namespaces/inkscape"
   xmlns:sodipodi="http://sodipodi.sourceforge.net/DTD/sodipodi-0.dtd"
   xmlns="http://www.w3.org/2000/svg"
   xmlns:svg="http://www.w3.org/2000/svg">
  <defs
     id="defs29">
    <clipPath
       clipPathUnits="userSpaceOnUse"
       id="clipPath85">
      <path
         d="M 0,393.306 H 230.524 V 0 H 0 Z"
         id="path83" />
    </clipPath>
  </defs>
  <sodipodi:namedview
     id="namedview27"
     pagecolor="#ffffff"
     bordercolor="#666666"
     borderopacity="1.0"
     inkscape:showpageshadow="2"
     inkscape:pageopacity="0.0"
     inkscape:pagecheckerboard="0"
     inkscape:deskcolor="#d1d1d1"
     showgrid="false"
     inkscape:zoom="1.626596"
     inkscape:cx="153.38781"
     inkscape:cy="262.20401"
     inkscape:window-width="1920"
     inkscape:window-height="1055"
     inkscape:window-x="1920"
     inkscape:window-y="0"
     inkscape:window-maximized="1"
     inkscape:current-layer="g33">
    <inkscape:page
       x="0"
       y="0"
       id="page31"
       width="307.36533"
       height="524.40802" />
  </sodipodi:namedview>
  <g
     id="g33"
     inkscape:groupmode="layer"
     inkscape:label="Page 1"
     transform="matrix(1.3333333,0,0,-1.3333333,0,524.408)">
    <g
       id="g1439">
      <g
         id="g1359">
        <g
           id="g1280">
          <g
             id="g1202">
            <g
               id="g1125">
              <g
                 id="g1049">
                <g
                   id="g974">
                  <g
                     id="g900">
                    <g
                       id="g827">
                      <g
                         id="g755">
                        <g
                           id="g684">
                          <g
                             id="g614">
                            <g
                               id="g545">
                              <g
                                 id="g35"
                                 transform="translate(224.4791,61.0608)">
                                <path
                                   d="M 0,0 V 315.53"
                                   style="fill:none;stroke:#e6e6e6;stroke-width:0.5;stroke-linecap:butt;stroke-linejoin:miter;stroke-miterlimit:10;stroke-dasharray:none;stroke-opacity:1"
                                   id="path37" />
                              </g>
                              <g
                                 id="g39"
                                 transform="translate(184.9488,61.7433)">
                                <path
                                   d="M 0,0 V 315.728"
                                   style="fill:none;stroke:#e6e6e6;stroke-width:0.5;stroke-linecap:butt;stroke-linejoin:miter;stroke-miterlimit:10;stroke-dasharray:none;stroke-opacity:1"
                                   id="path41" />
                              </g>
                              <g
                                 id="g43"
                                 transform="translate(106.0545,61.6982)">
                                <path
                                   d="M 0,0 V 314.51"
                                   style="fill:none;stroke:#e6e6e6;stroke-width:0.5;stroke-linecap:butt;stroke-linejoin:miter;stroke-miterlimit:10;stroke-dasharray:none;stroke-opacity:1"
                                   id="path45" />
                              </g>
                              <g
                                 id="g47"
                                 transform="translate(145.4849,61.6982)">
                                <path
                                   d="M 0,0 V 315.728"
                                   style="fill:none;stroke:#e6e6e6;stroke-width:0.5;stroke-linecap:butt;stroke-linejoin:miter;stroke-miterlimit:10;stroke-dasharray:none;stroke-opacity:1"
                                   id="path49" />
                              </g>
                              <g
                                 id="g51"
                                 transform="translate(66.5694,61.2852)">
                                <path
                                   d="M 0,0 H 157.91"
                                   style="fill:none;stroke:#e6e7e8;stroke-width:0.5;stroke-linecap:butt;stroke-linejoin:miter;stroke-miterlimit:10;stroke-dasharray:none;stroke-opacity:1"
                                   id="path53" />
                              </g>
                              <text
                                 xml:space="preserve"
                                 transform="matrix(0.96691111,0,0,-1,63.8774,51.1353)"
                                 style="font-variant:normal;font-weight:bold;font-stretch:normal;font-size:9px;font-family:'Proxima Nova';-inkscape-font-specification:ProximaNova-Bold;writing-mode:lr-tb;fill:#646363;fill-opacity:1;fill-rule:nonzero;stroke:none"
                                 id="text69"><tspan
                                   x="0"
                                   y="0"
                                   id="tspan55">0</tspan><tspan
                                   x="82.547997"
                                   y="0.0089999996"
                                   id="tspan57">1</tspan><tspan
                                   x="119.475 123.174 125.478"
                                   y="-0.035999998"
                                   sodipodi:role="line"
                                   id="tspan59">1.5</tspan><tspan
                                   x="163.629 37.035 42.425999 44.73"
                                   y="0.35100001"
                                   sodipodi:role="line"
                                   id="tspan61">20.5</tspan><tspan
                                   x="1.512 3.9779999 10.44 16.056 20.349001 22.653 24.93 30.141001 32.445 40.112999 42.389999 44.667 46.944 49.221001 54.387001 59.598"
                                   y="18.143999"
                                   sodipodi:role="line"
                                   id="tspan63">IDPs in millions</tspan><tspan
                                   x="-52.389 -45.926998 -40.139999 -37.835999 -31.653 -26.487 -21.275999 -16.011"
                                   y="-293.85001"
                                   sodipodi:role="line"
                                   id="tspan65">DR Congo</tspan><tspan
                                   x="-60.056999 -54.081001 -51.138 -45.873001 -40.653 -35.765999 -30.555 -28.278 -23.985001 -20.943001 -16.056"
                                   y="-319.32901"
                                   sodipodi:role="line"
                                   id="tspan67">Afghanistan</tspan></text>
                              <g
                                 id="g71"
                                 transform="translate(66.5693,61.2852)">
                                <path
                                   d="M 0,0 V 316.186"
                                   style="fill:none;stroke:#e6e6e6;stroke-width:0.5;stroke-linecap:butt;stroke-linejoin:miter;stroke-miterlimit:10;stroke-dasharray:none;stroke-opacity:1"
                                   id="path73" />
                              </g>
                              <text
                                 xml:space="preserve"
                                 transform="matrix(0.96691111,0,0,-1,33.7114,319.4736)"
                                 style="font-variant:normal;font-weight:bold;font-stretch:normal;font-size:9px;font-family:'Proxima Nova';-inkscape-font-specification:ProximaNova-Bold;writing-mode:lr-tb;fill:#646363;fill-opacity:1;fill-rule:nonzero;stroke:none"
                                 id="text77"><tspan
                                   x="0 5.3369999 9.9540005 13.194 15.471"
                                   y="0"
                                   sodipodi:role="line"
                                   id="tspan75">Syria</tspan></text>
                              <g
                                 id="g477">
                                <g
                                   id="g443">
                                <g
                                   id="g410">
                                <g
                                   id="g378">
                                <g
                                   id="g347">
                                <g
                                   id="g79">
                                <g
                                   id="g81"
                                   clip-path="url(#clipPath85)">
                                <g
                                   id="g87"
                                   transform="translate(218.4941,368.1644)">
                                <path
                                   d="m 0,0 h -147.94 c -2.198,0 -3.98,1.782 -3.98,3.98 v 0.824 c 0,2.198 1.782,3.979 3.98,3.979 L 0,8.783 c 2.198,0 3.98,-1.781 3.98,-3.979 V 3.98 C 3.98,1.782 2.198,0 0,0"
                                   style="fill:#193256;fill-opacity:1;fill-rule:nonzero;stroke:none"
                                   id="chart1-afghanistan" />
                                </g>
                                <g
                                   id="g91"
                                   transform="translate(214.6935,342.6862)">
                                <path
                                   d="m 0,0 h -144.139 c -2.198,0 -3.98,1.782 -3.98,3.98 v 0.824 c 0,2.198 1.782,3.979 3.98,3.979 L 0,8.783 c 2.198,0 3.98,-1.781 3.98,-3.979 V 3.98 C 3.98,1.782 2.198,0 0,0"
                                   style="fill:#193256;fill-opacity:1;fill-rule:nonzero;stroke:none"
                                   id="chart1-drcongo" />
                                </g>
                                <g
                                   id="g95"
                                   transform="translate(195.3398,317.1744)">
                                <path
                                   d="m 0,0 h -124.786 c -2.198,0 -3.979,1.782 -3.979,3.98 v 0.824 c 0,2.198 1.781,3.979 3.979,3.979 L 0,8.783 c 2.198,0 3.98,-1.781 3.98,-3.979 V 3.98 C 3.98,1.782 2.198,0 0,0"
                                   style="fill:#193256;fill-opacity:1;fill-rule:nonzero;stroke:none"
                                   id="chart1-syria" />
                                </g>
                                <g
                                   id="g99"
                                   transform="translate(169.825,292.8297)">
                                <path
                                   d="m 0,0 h -99.271 c -2.198,0 -3.98,1.782 -3.98,3.98 v 0.824 c 0,2.198 1.782,3.979 3.98,3.979 L 0,8.783 c 2.198,0 3.98,-1.781 3.98,-3.979 V 3.98 C 3.98,1.782 2.198,0 0,0"
                                   style="fill:#193256;fill-opacity:1;fill-rule:nonzero;stroke:none"
                                   id="chart1-yemen" />
                                </g>
                                <g
                                   id="g103"
                                   transform="translate(168.5213,267.9033)">
                                <path
                                   d="m 0,0 h -97.967 c -2.198,0 -3.98,1.782 -3.98,3.98 v 0.824 c 0,2.198 1.782,3.979 3.98,3.979 L 0,8.783 c 2.198,0 3.98,-1.781 3.98,-3.979 V 3.98 C 3.98,1.782 2.198,0 0,0"
                                   style="fill:#193256;fill-opacity:1;fill-rule:nonzero;stroke:none"
                                   id="chart1-ethiopia" />
                                </g>
                                <g
                                   id="g107"
                                   transform="translate(151.3283,242.0222)">
                                <path
                                   d="m 0,0 h -80.774 c -2.198,0 -3.98,1.782 -3.98,3.98 v 0.824 c 0,2.198 1.782,3.979 3.98,3.979 L 0,8.783 c 2.198,0 3.98,-1.781 3.98,-3.979 V 3.98 C 3.98,1.782 2.198,0 0,0"
                                   style="fill:#193256;fill-opacity:1;fill-rule:nonzero;stroke:none"
                                   id="chart1-nigeria" />
                                </g>
                                <g
                                   id="g111"
                                   transform="translate(145.7835,217.0637)">
                                <path
                                   d="m 0,0 h -75.229 c -2.198,0 -3.98,1.782 -3.98,3.98 v 0.824 c 0,2.198 1.782,3.979 3.98,3.979 L 0,8.783 c 2.198,0 3.98,-1.781 3.98,-3.979 V 3.98 C 3.98,1.782 2.198,0 0,0"
                                   style="fill:#193256;fill-opacity:1;fill-rule:nonzero;stroke:none"
                                   id="chart1-somalia" />
                                </g>
                                <g
                                   id="g115"
                                   transform="translate(145.0726,192.2158)">
                                <path
                                   d="m 0,0 h -74.518 c -2.198,0 -3.98,1.782 -3.98,3.98 v 0.824 c 0,2.198 1.782,3.979 3.98,3.979 L 0,8.783 c 2.198,0 3.98,-1.781 3.98,-3.979 V 3.98 C 3.98,1.782 2.198,0 0,0"
                                   style="fill:#193256;fill-opacity:1;fill-rule:nonzero;stroke:none"
                                   id="chart1-sudan" />
                                </g>
                                <g
                                   id="g119"
                                   transform="translate(144.5597,167.8472)">
                                <path
                                   d="m 0,0 h -74.006 c -2.198,0 -3.979,1.782 -3.979,3.98 v 0.824 c 0,2.198 1.781,3.979 3.979,3.979 L 0,8.783 c 2.198,0 3.98,-1.781 3.98,-3.979 V 3.98 C 3.98,1.782 2.198,0 0,0"
                                   style="fill:#193256;fill-opacity:1;fill-rule:nonzero;stroke:none"
                                   id="chart1-colombia" />
                                </g>
                                <g
                                   id="g123"
                                   transform="translate(111.5809,142.5386)">
                                <path
                                   d="m 0,0 h -41.027 c -2.198,0 -3.98,1.782 -3.98,3.98 v 0.824 c 0,2.198 1.782,3.979 3.98,3.979 L 0,8.783 c 2.198,0 3.98,-1.781 3.98,-3.979 V 3.98 C 3.98,1.782 2.198,0 0,0"
                                   style="fill:#193256;fill-opacity:1;fill-rule:nonzero;stroke:none"
                                   id="chart1-southsudan" />
                                </g>
                                <g
                                   id="g127"
                                   transform="translate(91.8249,117.4044)">
                                <path
                                   d="m 0,0 h -21.271 c -2.198,0 -3.979,1.782 -3.979,3.98 v 0.824 c 0,2.198 1.781,3.979 3.979,3.979 L 0,8.783 c 2.198,0 3.98,-1.781 3.98,-3.979 V 3.98 C 3.98,1.782 2.198,0 0,0"
                                   style="fill:#193256;fill-opacity:1;fill-rule:nonzero;stroke:none"
                                   id="chart1-iraq" />
                                </g>
                                <g
                                   id="g131"
                                   transform="translate(86.454,92.27)">
                                <path
                                   d="m 0,0 h -15.9 c -2.198,0 -3.98,1.782 -3.98,3.98 v 0.824 c 0,2.198 1.782,3.979 3.98,3.979 H 0 c 2.198,0 3.98,-1.781 3.98,-3.979 V 3.98 C 3.98,1.782 2.198,0 0,0"
                                   style="fill:#193256;fill-opacity:1;fill-rule:nonzero;stroke:none"
                                   id="chart1-mozambique" />
                                </g>
                                <g
                                   id="g135"
                                   transform="translate(74.5244,67.1359)">
                                <path
                                   d="m 0,0 h -3.97 c -2.198,0 -3.98,1.782 -3.98,3.98 v 0.824 c 0,2.198 1.782,3.979 3.98,3.979 H 0 c 2.198,0 3.98,-1.781 3.98,-3.979 V 3.98 C 3.98,1.782 2.198,0 0,0"
                                   style="fill:#193256;fill-opacity:1;fill-rule:nonzero;stroke:none"
                                   id="chart1-myanmar" />
                                </g>
                                </g>
                                </g>
                                </g>
                                </g>
                                </g>
                                </g>
                              </g>
                              <text
                                 xml:space="preserve"
                                 transform="matrix(0.96691111,0,0,-1,26.7847,295.1289)"
                                 style="font-variant:normal;font-weight:bold;font-stretch:normal;font-size:9px;font-family:'Proxima Nova';-inkscape-font-specification:ProximaNova-Bold;writing-mode:lr-tb;fill:#646363;fill-opacity:1;fill-rule:nonzero;stroke:none"
                                 id="text159"><tspan
                                   x="0 4.6890001 9.6660004 17.334 22.311001"
                                   y="0"
                                   sodipodi:role="line"
                                   id="tspan139">Yemen</tspan><tspan
                                   x="-5.8590002 -0.61199999 2.4300001 7.6500001 9.927 15.093 20.358 22.635"
                                   y="24.93"
                                   sodipodi:role="line"
                                   id="tspan141">Ethiopia</tspan><tspan
                                   x="-1.962 4.599 6.8759999 12.141 17.118 20.358 22.635"
                                   y="50.813999"
                                   sodipodi:role="line"
                                   id="tspan143">Nigeria</tspan><tspan
                                   x="-5.04 0.36000001 5.526 13.194 18.080999 20.358 22.635"
                                   y="75.771004"
                                   sodipodi:role="line"
                                   id="tspan145">Somalia</tspan><tspan
                                   x="1.539 6.9390001 12.15 17.424 22.311001"
                                   y="100.62"
                                   sodipodi:role="line"
                                   id="tspan147">Sudan</tspan><tspan
                                   x="-11.376 -5.1929998 -0.027000001 2.25 7.4159999 15.084 20.358 22.635"
                                   y="124.992"
                                   sodipodi:role="line"
                                   id="tspan149">Colombia</tspan><tspan
                                   x="-24.804001 -19.403999 -14.238 -9.0270004 -5.9850001 -0.76499999 1.539 6.9390001 12.15 17.424 22.311001"
                                   y="150.3"
                                   sodipodi:role="line"
                                   id="tspan151">South Sudan</tspan><tspan
                                   x="11.664 14.13 17.370001 22.257"
                                   y="175.437"
                                   sodipodi:role="line"
                                   id="tspan153">Iraq</tspan><tspan
                                   x="-25.209 -17.514 -12.348 -8.0369997 -3.1500001 4.5180001 9.7919998 12.069 17.334 22.545"
                                   y="200.57401"
                                   sodipodi:role="line"
                                   id="tspan155">Mozambique</tspan><tspan
                                   x="-10.683 -2.9879999 1.6289999 6.5159998 11.727 19.395 24.282"
                                   y="225.711"
                                   sodipodi:role="line"
                                   id="tspan157">Myanmar</tspan></text>
                            </g>
                          </g>
                        </g>
                      </g>
                    </g>
                  </g>
                </g>
              </g>
            </g>
          </g>
        </g>
      </g>
    </g>
  </g>
</svg>
