<?xml version="1.0" encoding="UTF-8" standalone="no"?>
<!-- Created with Inkscape (http://www.inkscape.org/) -->

<svg
   version="1.1"
   id="svg25"
   width="348.45468"
   height="573.276"
   viewBox="0 0 348.45468 573.276"
   sodipodi:docname="chart3.svg"
   inkscape:version="1.2.1 (0f2f062aeb, 2022-09-21, custom)"
   xmlns:inkscape="http://www.inkscape.org/namespaces/inkscape"
   xmlns:sodipodi="http://sodipodi.sourceforge.net/DTD/sodipodi-0.dtd"
   xmlns="http://www.w3.org/2000/svg"
   xmlns:svg="http://www.w3.org/2000/svg">
  <defs
     id="defs29">
    <clipPath
       clipPathUnits="userSpaceOnUse"
       id="clipPath49">
      <path
         d="M 0,429.957 H 261.341 V 0 H 0 Z"
         id="path47" />
    </clipPath>
    <clipPath
       clipPathUnits="userSpaceOnUse"
       id="clipPath73">
      <path
         d="M 0,429.957 H 261.341 V 0 H 0 Z"
         id="path71" />
    </clipPath>
    <clipPath
       clipPathUnits="userSpaceOnUse"
       id="clipPath101">
      <path
         d="M 0,429.957 H 261.341 V 0 H 0 Z"
         id="path99" />
    </clipPath>
    <clipPath
       clipPathUnits="userSpaceOnUse"
       id="clipPath129">
      <path
         d="M 0,429.957 H 261.341 V 0 H 0 Z"
         id="path127" />
    </clipPath>
    <clipPath
       clipPathUnits="userSpaceOnUse"
       id="clipPath157">
      <path
         d="M 0,429.957 H 261.341 V 0 H 0 Z"
         id="path155" />
    </clipPath>
    <clipPath
       clipPathUnits="userSpaceOnUse"
       id="clipPath185">
      <path
         d="M 0,429.957 H 261.341 V 0 H 0 Z"
         id="path183" />
    </clipPath>
    <clipPath
       clipPathUnits="userSpaceOnUse"
       id="clipPath213">
      <path
         d="M 0,429.957 H 261.341 V 0 H 0 Z"
         id="path211" />
    </clipPath>
    <clipPath
       clipPathUnits="userSpaceOnUse"
       id="clipPath241">
      <path
         d="M 0,429.957 H 261.341 V 0 H 0 Z"
         id="path239" />
    </clipPath>
    <clipPath
       clipPathUnits="userSpaceOnUse"
       id="clipPath269">
      <path
         d="M 0,429.957 H 261.341 V 0 H 0 Z"
         id="path267" />
    </clipPath>
    <clipPath
       clipPathUnits="userSpaceOnUse"
       id="clipPath297">
      <path
         d="M 0,429.957 H 261.341 V 0 H 0 Z"
         id="path295" />
    </clipPath>
    <clipPath
       clipPathUnits="userSpaceOnUse"
       id="clipPath325">
      <path
         d="M 0,429.957 H 261.341 V 0 H 0 Z"
         id="path323" />
    </clipPath>
    <clipPath
       clipPathUnits="userSpaceOnUse"
       id="clipPath353">
      <path
         d="M 0,429.957 H 261.341 V 0 H 0 Z"
         id="path351" />
    </clipPath>
    <clipPath
       clipPathUnits="userSpaceOnUse"
       id="clipPath381">
      <path
         d="M 0,429.957 H 261.341 V 0 H 0 Z"
         id="path379" />
    </clipPath>
    <clipPath
       clipPathUnits="userSpaceOnUse"
       id="clipPath401">
      <path
         d="M 0,429.957 H 261.341 V 0 H 0 Z"
         id="path399" />
    </clipPath>
  </defs>
  <sodipodi:namedview
     id="namedview27"
     pagecolor="#ffffff"
     bordercolor="#666666"
     borderopacity="1.0"
     inkscape:showpageshadow="2"
     inkscape:pageopacity="0.0"
     inkscape:pagecheckerboard="0"
     inkscape:deskcolor="#d1d1d1"
     showgrid="false"
     inkscape:zoom="1.4199094"
     inkscape:cx="174.30689"
     inkscape:cy="286.99014"
     inkscape:window-width="1920"
     inkscape:window-height="1055"
     inkscape:window-x="1920"
     inkscape:window-y="0"
     inkscape:window-maximized="1"
     inkscape:current-layer="g33">
    <inkscape:page
       x="0"
       y="0"
       id="page31"
       width="348.45468"
       height="573.276" />
  </sodipodi:namedview>
  <g
     id="g33"
     inkscape:groupmode="layer"
     inkscape:label="Page 1"
     transform="matrix(1.3333333,0,0,-1.3333333,0,573.276)">
    <text
       xml:space="preserve"
       transform="matrix(1,0,0,-1,65.5229,378.9263)"
       style="font-variant:normal;font-weight:bold;font-stretch:normal;font-size:10px;font-family:'Proxima Nova';-inkscape-font-specification:ProximaNova-Bold;writing-mode:lr-tb;fill:#646363;fill-opacity:1;fill-rule:nonzero;stroke:none"
       id="text37"><tspan
         x="0 7.1799998 13.61 16.17 23.040001 28.780001 34.57 40.419998 46.16"
         y="0"
         sodipodi:role="line"
         id="tspan35">DR Congo </tspan></text>
    <text
       xml:space="preserve"
       transform="matrix(1,0,0,-1,114.2429,378.9263)"
       style="font-variant:normal;font-weight:500;font-stretch:normal;font-size:10px;font-family:'Proxima Nova Medium';-inkscape-font-specification:ProximaNova-Medium;writing-mode:lr-tb;fill:#ef7d00;fill-opacity:1;fill-rule:nonzero;stroke:none"
       id="text41"><tspan
         x="0 3.5899999 5.9699998 11.93"
         y="0"
         sodipodi:role="line"
         id="tspan39">1.9m</tspan></text>
    <g
       id="chart3-drcongo">
      <g
         id="g45"
         clip-path="url(#clipPath49)">
        <g
           id="g51"
           transform="translate(140.44,377.3112)">
          <path
             d="m 0,0 v 7.939 c 0,0.977 0.792,1.769 1.769,1.769 0.977,0 1.769,-0.792 1.769,-1.769 V 0 C 3.538,-0.977 2.746,-1.769 1.769,-1.769 0.792,-1.769 0,-0.977 0,0"
             style="fill:#e6e6e6;fill-opacity:1;fill-rule:nonzero;stroke:none"
             id="path53" />
        </g>
        <g
           id="g55"
           transform="translate(147.751,383.6071)">
          <path
             d="m 0,0 h 48.589 c 1.266,0 2.292,-1.026 2.292,-2.292 0,-1.266 -1.026,-2.292 -2.292,-2.292 H 0 c -1.266,0 -2.292,1.026 -2.292,2.292 C -2.292,-1.026 -1.266,0 0,0"
             style="fill:#ef7d00;fill-opacity:1;fill-rule:nonzero;stroke:none"
             id="path57" />
        </g>
      </g>
    </g>
    <text
       xml:space="preserve"
       transform="matrix(1,0,0,-1,90.3496,358.4009)"
       style="font-variant:normal;font-weight:bold;font-stretch:normal;font-size:10px;font-family:'Proxima Nova';-inkscape-font-specification:ProximaNova-Bold;writing-mode:lr-tb;fill:#646363;fill-opacity:1;fill-rule:nonzero;stroke:none"
       id="text61"><tspan
         x="0 5.9299998 11.06 14.66 17.190001 22.620001"
         y="0"
         sodipodi:role="line"
         id="tspan59">Syria </tspan></text>
    <text
       xml:space="preserve"
       transform="matrix(1,0,0,-1,115.5296,358.4009)"
       style="font-variant:normal;font-weight:500;font-stretch:normal;font-size:10px;font-family:'Proxima Nova Medium';-inkscape-font-specification:ProximaNova-Medium;writing-mode:lr-tb;fill:#ef7d00;fill-opacity:1;fill-rule:nonzero;stroke:none"
       id="text65"><tspan
         x="0 3.5899999 5.29 10.52"
         y="0"
         sodipodi:role="line"
         id="tspan63">1.7m</tspan></text>
    <g
       id="chart3-syria">
      <g
         id="g69"
         clip-path="url(#clipPath73)">
        <g
           id="g75"
           transform="translate(196.4492,362.6799)">
          <path
             d="m 0,0 h -48.807 c -1.252,0 -2.276,-1.024 -2.276,-2.276 0,-1.251 1.024,-2.275 2.276,-2.275 H 0 c 1.251,0 2.275,1.024 2.275,2.275 C 2.275,-1.024 1.251,0 0,0"
             style="fill:#e6e6e6;fill-opacity:1;fill-rule:nonzero;stroke:none"
             id="path77" />
        </g>
        <g
           id="g79"
           transform="translate(140.44,356.4348)">
          <path
             d="m 0,0 v 7.939 c 0,0.977 0.792,1.769 1.769,1.769 0.977,0 1.769,-0.792 1.769,-1.769 V 0 C 3.538,-0.977 2.746,-1.769 1.769,-1.769 0.792,-1.769 0,-0.977 0,0"
             style="fill:#e6e6e6;fill-opacity:1;fill-rule:nonzero;stroke:none"
             id="path81" />
        </g>
        <g
           id="g83"
           transform="translate(147.6582,362.6965)">
          <path
             d="m 0,0 h 43.63 c 1.266,0 2.292,-1.026 2.292,-2.292 0,-1.266 -1.026,-2.292 -2.292,-2.292 H 0 c -1.266,0 -2.292,1.026 -2.292,2.292 C -2.292,-1.026 -1.266,0 0,0"
             style="fill:#ef7d00;fill-opacity:1;fill-rule:nonzero;stroke:none"
             id="path85" />
        </g>
      </g>
    </g>
    <text
       xml:space="preserve"
       transform="matrix(1,0,0,-1,57.4355,336.2368)"
       style="font-variant:normal;font-weight:bold;font-stretch:normal;font-size:10px;font-family:'Proxima Nova';-inkscape-font-specification:ProximaNova-Bold;writing-mode:lr-tb;fill:#646363;fill-opacity:1;fill-rule:nonzero;stroke:none"
       id="text89"><tspan
         x="0 6.6399999 9.9099998 15.76 21.559999 26.99 32.779999 35.310001 40.080002 43.459999 48.889999 54.68"
         y="0"
         sodipodi:role="line"
         id="tspan87">Afghanistan </tspan></text>
    <text
       xml:space="preserve"
       transform="matrix(1,0,0,-1,114.6755,336.2368)"
       style="font-variant:normal;font-weight:500;font-stretch:normal;font-size:10px;font-family:'Proxima Nova Medium';-inkscape-font-specification:ProximaNova-Medium;writing-mode:lr-tb;fill:#ef7d00;fill-opacity:1;fill-rule:nonzero;stroke:none"
       id="text93"><tspan
         x="0 3.5899999 5.9699998 11.92"
         y="0"
         sodipodi:role="line"
         id="tspan91">1.5m</tspan></text>
    <g
       id="chart3-afghanistan">
      <g
         id="g97"
         clip-path="url(#clipPath101)">
        <g
           id="g103"
           transform="translate(196.4492,341.6613)">
          <path
             d="m 0,0 h -48.807 c -1.252,0 -2.276,-1.024 -2.276,-2.275 0,-1.252 1.024,-2.276 2.276,-2.276 H 0 c 1.251,0 2.275,1.024 2.275,2.276 C 2.275,-1.024 1.251,0 0,0"
             style="fill:#e6e6e6;fill-opacity:1;fill-rule:nonzero;stroke:none"
             id="path105" />
        </g>
        <g
           id="g107"
           transform="translate(140.44,335.5583)">
          <path
             d="m 0,0 v 7.939 c 0,0.977 0.792,1.769 1.769,1.769 0.977,0 1.769,-0.792 1.769,-1.769 V 0 C 3.538,-0.977 2.746,-1.769 1.769,-1.769 0.792,-1.769 0,-0.977 0,0"
             style="fill:#e6e6e6;fill-opacity:1;fill-rule:nonzero;stroke:none"
             id="path109" />
        </g>
        <g
           id="g111"
           transform="translate(147.751,341.6618)">
          <path
             d="m 0,0 h 38.212 c 1.267,0 2.292,-1.026 2.292,-2.292 0,-1.266 -1.025,-2.292 -2.292,-2.292 H 0 c -1.266,0 -2.292,1.026 -2.292,2.292 C -2.292,-1.026 -1.266,0 0,0"
             style="fill:#ef7d00;fill-opacity:1;fill-rule:nonzero;stroke:none"
             id="path113" />
        </g>
      </g>
    </g>
    <text
       xml:space="preserve"
       transform="matrix(1,0,0,-1,81.373,315.7295)"
       style="font-variant:normal;font-weight:bold;font-stretch:normal;font-size:10px;font-family:'Proxima Nova';-inkscape-font-specification:ProximaNova-Bold;writing-mode:lr-tb;fill:#646363;fill-opacity:1;fill-rule:nonzero;stroke:none"
       id="text117"><tspan
         x="0 5.21 10.74 19.26 24.790001 30.58"
         y="0"
         sodipodi:role="line"
         id="tspan115">Yemen </tspan></text>
    <text
       xml:space="preserve"
       transform="matrix(1,0,0,-1,114.513,315.7295)"
       style="font-variant:normal;font-weight:500;font-stretch:normal;font-size:10px;font-family:'Proxima Nova Medium';-inkscape-font-specification:ProximaNova-Medium;writing-mode:lr-tb;fill:#ef7d00;fill-opacity:1;fill-rule:nonzero;stroke:none"
       id="text121"><tspan
         x="0 3.5899999 5.9699998 11.66"
         y="0"
         sodipodi:role="line"
         id="tspan119">1.4m</tspan></text>
    <g
       id="chart3-yemen">
      <g
         id="g125"
         clip-path="url(#clipPath129)">
        <g
           id="g131"
           transform="translate(196.4492,321.5764)">
          <path
             d="m 0,0 h -48.807 c -1.252,0 -2.276,-1.024 -2.276,-2.275 0,-1.252 1.024,-2.276 2.276,-2.276 H 0 c 1.251,0 2.275,1.024 2.275,2.276 C 2.275,-1.024 1.251,0 0,0"
             style="fill:#e6e6e6;fill-opacity:1;fill-rule:nonzero;stroke:none"
             id="path133" />
        </g>
        <g
           id="g135"
           transform="translate(140.44,314.6819)">
          <path
             d="m 0,0 v 7.939 c 0,0.978 0.792,1.769 1.769,1.769 0.977,0 1.769,-0.791 1.769,-1.769 V 0 C 3.538,-0.977 2.746,-1.769 1.769,-1.769 0.792,-1.769 0,-0.977 0,0"
             style="fill:#e6e6e6;fill-opacity:1;fill-rule:nonzero;stroke:none"
             id="path137" />
        </g>
        <g
           id="g139"
           transform="translate(147.751,321.593)">
          <path
             d="m 0,0 h 34.257 c 1.266,0 2.292,-1.026 2.292,-2.292 0,-1.266 -1.026,-2.292 -2.292,-2.292 H 0 c -1.266,0 -2.292,1.026 -2.292,2.292 C -2.292,-1.026 -1.266,0 0,0"
             style="fill:#ef7d00;fill-opacity:1;fill-rule:nonzero;stroke:none"
             id="path141" />
        </g>
      </g>
    </g>
    <text
       xml:space="preserve"
       transform="matrix(1,0,0,-1,74.6431,295.2617)"
       style="font-variant:normal;font-weight:bold;font-stretch:normal;font-size:10px;font-family:'Proxima Nova';-inkscape-font-specification:ProximaNova-Bold;writing-mode:lr-tb;fill:#646363;fill-opacity:1;fill-rule:nonzero;stroke:none"
       id="text145"><tspan
         x="0 5.8299999 9.21 15.01 17.540001 23.280001 29.129999 31.66 37.09"
         y="0"
         sodipodi:role="line"
         id="tspan143">Ethiopia </tspan></text>
    <text
       xml:space="preserve"
       transform="matrix(1,0,0,-1,114.2931,295.2617)"
       style="font-variant:normal;font-weight:500;font-stretch:normal;font-size:10px;font-family:'Proxima Nova Medium';-inkscape-font-specification:ProximaNova-Medium;writing-mode:lr-tb;fill:#ef7d00;fill-opacity:1;fill-rule:nonzero;stroke:none"
       id="text149"><tspan
         x="0 3.5899999 5.9699998 11.88"
         y="0"
         sodipodi:role="line"
         id="tspan147">1.2m</tspan></text>
    <g
       id="chart3-ethiopia">
      <g
         id="g153"
         clip-path="url(#clipPath157)">
        <g
           id="g159"
           transform="translate(196.4492,300.6999)">
          <path
             d="m 0,0 h -48.807 c -1.252,0 -2.276,-1.024 -2.276,-2.275 0,-1.252 1.024,-2.276 2.276,-2.276 H 0 c 1.251,0 2.275,1.024 2.275,2.276 C 2.275,-1.024 1.251,0 0,0"
             style="fill:#e6e6e6;fill-opacity:1;fill-rule:nonzero;stroke:none"
             id="path161" />
        </g>
        <g
           id="g163"
           transform="translate(140.44,293.8054)">
          <path
             d="m 0,0 v 7.939 c 0,0.978 0.792,1.769 1.769,1.769 0.977,0 1.769,-0.791 1.769,-1.769 V 0 C 3.538,-0.977 2.746,-1.769 1.769,-1.769 0.792,-1.769 0,-0.977 0,0"
             style="fill:#e6e6e6;fill-opacity:1;fill-rule:nonzero;stroke:none"
             id="path165" />
        </g>
        <g
           id="g167"
           transform="translate(147.751,300.7165)">
          <path
             d="m 0,0 h 28.553 c 1.265,0 2.292,-1.026 2.292,-2.292 0,-1.266 -1.027,-2.292 -2.292,-2.292 H 0 c -1.266,0 -2.292,1.026 -2.292,2.292 C -2.292,-1.026 -1.266,0 0,0"
             style="fill:#ef7d00;fill-opacity:1;fill-rule:nonzero;stroke:none"
             id="path169" />
        </g>
      </g>
    </g>
    <text
       xml:space="preserve"
       transform="matrix(1,0,0,-1,82.0527,274.7026)"
       style="font-variant:normal;font-weight:bold;font-stretch:normal;font-size:10px;font-family:'Proxima Nova';-inkscape-font-specification:ProximaNova-Bold;writing-mode:lr-tb;fill:#646363;fill-opacity:1;fill-rule:nonzero;stroke:none"
       id="text173"><tspan
         x="0 7.29 9.8199997 15.67 21.200001 24.799999 27.33 32.759998"
         y="0"
         sodipodi:role="line"
         id="tspan171">Nigeria </tspan></text>
    <text
       xml:space="preserve"
       transform="matrix(1,0,0,-1,117.3727,274.7026)"
       style="font-variant:normal;font-weight:500;font-stretch:normal;font-size:10px;font-family:'Proxima Nova Medium';-inkscape-font-specification:ProximaNova-Medium;writing-mode:lr-tb;fill:#ef7d00;fill-opacity:1;fill-rule:nonzero;stroke:none"
       id="text177"><tspan
         x="0 3.5899999 5.1300001 8.7200003"
         y="0"
         sodipodi:role="line"
         id="tspan175">1.1m</tspan></text>
    <g
       id="chart3-nigeria">
      <g
         id="g181"
         clip-path="url(#clipPath185)">
        <g
           id="g187"
           transform="translate(196.3692,279.2907)">
          <path
             d="m 0,0 h -48.807 c -1.252,0 -2.276,-1.023 -2.276,-2.275 0,-1.251 1.024,-2.276 2.276,-2.276 H 0 c 1.251,0 2.275,1.025 2.275,2.276 C 2.275,-1.023 1.251,0 0,0"
             style="fill:#e6e6e6;fill-opacity:1;fill-rule:nonzero;stroke:none"
             id="path189" />
        </g>
        <g
           id="g191"
           transform="translate(140.3599,273.0456)">
          <path
             d="m 0,0 v 7.939 c 0,0.978 0.792,1.77 1.77,1.77 0.976,0 1.768,-0.792 1.768,-1.77 L 3.538,0 C 3.538,-0.977 2.746,-1.769 1.77,-1.769 0.792,-1.769 0,-0.977 0,0"
             style="fill:#e6e6e6;fill-opacity:1;fill-rule:nonzero;stroke:none"
             id="path193" />
        </g>
        <g
           id="g195"
           transform="translate(147.6714,279.3073)">
          <path
             d="m 0,0 h 26.546 c 1.266,0 2.292,-1.026 2.292,-2.292 0,-1.266 -1.026,-2.292 -2.292,-2.292 H 0 c -1.266,0 -2.292,1.026 -2.292,2.292 C -2.292,-1.026 -1.266,0 0,0"
             style="fill:#ef7d00;fill-opacity:1;fill-rule:nonzero;stroke:none"
             id="path197" />
        </g>
      </g>
    </g>
    <text
       xml:space="preserve"
       transform="matrix(1,0,0,-1,78.7129,252.981)"
       style="font-variant:normal;font-weight:bold;font-stretch:normal;font-size:10px;font-family:'Proxima Nova';-inkscape-font-specification:ProximaNova-Bold;writing-mode:lr-tb;fill:#646363;fill-opacity:1;fill-rule:nonzero;stroke:none"
       id="text201"><tspan
         x="0 6 11.74 20.26 25.690001 28.219999 30.75 36.18"
         y="0"
         sodipodi:role="line"
         id="tspan199">Somalia </tspan></text>
    <text
       xml:space="preserve"
       transform="matrix(1,0,0,-1,117.4529,252.981)"
       style="font-variant:normal;font-weight:500;font-stretch:normal;font-size:10px;font-family:'Proxima Nova Medium';-inkscape-font-specification:ProximaNova-Medium;writing-mode:lr-tb;fill:#ef7d00;fill-opacity:1;fill-rule:nonzero;stroke:none"
       id="text205"><tspan
         x="0 3.5899999 5.1300001 8.7200003"
         y="0"
         sodipodi:role="line"
         id="tspan203">1.1m</tspan></text>
    <g
       id="chart3-somalia">
      <g
         id="g209"
         clip-path="url(#clipPath213)">
        <g
           id="g215"
           transform="translate(196.4492,258.531)">
          <path
             d="m 0,0 h -48.807 c -1.252,0 -2.276,-1.023 -2.276,-2.275 0,-1.251 1.024,-2.276 2.276,-2.276 H 0 c 1.251,0 2.275,1.025 2.275,2.276 C 2.275,-1.023 1.251,0 0,0"
             style="fill:#e6e6e6;fill-opacity:1;fill-rule:nonzero;stroke:none"
             id="path217" />
        </g>
        <g
           id="g219"
           transform="translate(140.44,252.2868)">
          <path
             d="m 0,0 v 7.938 c 0,0.978 0.792,1.77 1.769,1.77 0.977,0 1.769,-0.792 1.769,-1.77 V 0 C 3.538,-0.978 2.746,-1.77 1.769,-1.77 0.792,-1.77 0,-0.978 0,0"
             style="fill:#e6e6e6;fill-opacity:1;fill-rule:nonzero;stroke:none"
             id="path221" />
        </g>
        <g
           id="g223"
           transform="translate(147.4458,258.5896)">
          <path
             d="m 0,0 h 25.6 c 1.266,0 2.292,-1.026 2.292,-2.292 0,-1.266 -1.026,-2.292 -2.292,-2.292 H 0 c -1.266,0 -2.292,1.026 -2.292,2.292 C -2.292,-1.026 -1.266,0 0,0"
             style="fill:#ef7d00;fill-opacity:1;fill-rule:nonzero;stroke:none"
             id="path225" />
        </g>
      </g>
    </g>
    <text
       xml:space="preserve"
       transform="matrix(1,0,0,-1,76.6797,232.0513)"
       style="font-variant:normal;font-weight:bold;font-stretch:normal;font-size:10px;font-family:'Proxima Nova';-inkscape-font-specification:ProximaNova-Bold;writing-mode:lr-tb;fill:#646363;fill-opacity:1;fill-rule:nonzero;stroke:none"
       id="text229"><tspan
         x="0 6.8699999 12.61 15.14 20.879999 29.4 35.259998 37.790001 43.220001"
         y="0"
         sodipodi:role="line"
         id="tspan227">Colombia </tspan></text>
    <text
       xml:space="preserve"
       transform="matrix(1,0,0,-1,122.4597,232.0513)"
       style="font-variant:normal;font-weight:500;font-stretch:normal;font-size:10px;font-family:'Proxima Nova Medium';-inkscape-font-specification:ProximaNova-Medium;writing-mode:lr-tb;fill:#ef7d00;fill-opacity:1;fill-rule:nonzero;stroke:none"
       id="text233"><tspan
         x="0 3.5899999"
         y="0"
         sodipodi:role="line"
         id="tspan231">1m</tspan></text>
    <g
       id="chart3-colombia">
      <g
         id="g237"
         clip-path="url(#clipPath241)">
        <g
           id="g243"
           transform="translate(196.4492,237.4177)">
          <path
             d="m 0,0 h -48.807 c -1.252,0 -2.276,-1.023 -2.276,-2.275 0,-1.251 1.024,-2.276 2.276,-2.276 H 0 c 1.251,0 2.275,1.025 2.275,2.276 C 2.275,-1.023 1.251,0 0,0"
             style="fill:#e6e6e6;fill-opacity:1;fill-rule:nonzero;stroke:none"
             id="path245" />
        </g>
        <g
           id="g247"
           transform="translate(140.44,231.3151)">
          <path
             d="m 0,0 v 7.938 c 0,0.978 0.792,1.77 1.769,1.77 0.977,0 1.769,-0.792 1.769,-1.77 V 0 C 3.538,-0.978 2.746,-1.77 1.769,-1.77 0.792,-1.77 0,-0.978 0,0"
             style="fill:#e6e6e6;fill-opacity:1;fill-rule:nonzero;stroke:none"
             id="path249" />
        </g>
        <g
           id="g251"
           transform="translate(147.751,237.5183)">
          <path
             d="m 0,0 h 25.17 c 1.266,0 2.292,-1.026 2.292,-2.292 0,-1.266 -1.026,-2.292 -2.292,-2.292 H 0 c -1.266,0 -2.292,1.026 -2.292,2.292 C -2.292,-1.026 -1.266,0 0,0"
             style="fill:#ef7d00;fill-opacity:1;fill-rule:nonzero;stroke:none"
             id="path253" />
        </g>
      </g>
    </g>
    <text
       xml:space="preserve"
       transform="matrix(1,0,0,-1,91.1221,211.1338)"
       style="font-variant:normal;font-weight:bold;font-stretch:normal;font-size:10px;font-family:'Proxima Nova';-inkscape-font-specification:ProximaNova-Bold;writing-mode:lr-tb;fill:#646363;fill-opacity:1;fill-rule:nonzero;stroke:none"
       id="text257"><tspan
         x="0 6 11.79 17.65 23.08 28.870001"
         y="0"
         sodipodi:role="line"
         id="tspan255">Sudan </tspan></text>
    <text
       xml:space="preserve"
       transform="matrix(1,0,0,-1,122.5521,211.1338)"
       style="font-variant:normal;font-weight:500;font-stretch:normal;font-size:10px;font-family:'Proxima Nova Medium';-inkscape-font-specification:ProximaNova-Medium;writing-mode:lr-tb;fill:#ef7d00;fill-opacity:1;fill-rule:nonzero;stroke:none"
       id="text261"><tspan
         x="0 3.5899999"
         y="0"
         sodipodi:role="line"
         id="tspan259">1m</tspan></text>
    <g
       id="chart3-sudan">
      <g
         id="g265"
         clip-path="url(#clipPath269)">
        <g
           id="g271"
           transform="translate(196.4492,217.3327)">
          <path
             d="m 0,0 h -48.807 c -1.252,0 -2.276,-1.023 -2.276,-2.275 0,-1.251 1.024,-2.276 2.276,-2.276 H 0 c 1.251,0 2.275,1.025 2.275,2.276 C 2.275,-1.023 1.251,0 0,0"
             style="fill:#e6e6e6;fill-opacity:1;fill-rule:nonzero;stroke:none"
             id="path273" />
        </g>
        <g
           id="g275"
           transform="translate(140.44,210.4382)">
          <path
             d="m 0,0 v 7.939 c 0,0.978 0.792,1.77 1.769,1.77 0.977,0 1.769,-0.792 1.769,-1.77 V 0 C 3.538,-0.977 2.746,-1.769 1.769,-1.769 0.792,-1.769 0,-0.977 0,0"
             style="fill:#e6e6e6;fill-opacity:1;fill-rule:nonzero;stroke:none"
             id="path277" />
        </g>
        <g
           id="g279"
           transform="translate(147.751,217.3493)">
          <path
             d="m 0,0 h 24.597 c 1.266,0 2.292,-1.026 2.292,-2.292 0,-1.266 -1.026,-2.292 -2.292,-2.292 H 0 c -1.266,0 -2.292,1.026 -2.292,2.292 C -2.292,-1.026 -1.266,0 0,0"
             style="fill:#ef7d00;fill-opacity:1;fill-rule:nonzero;stroke:none"
             id="path281" />
        </g>
      </g>
    </g>
    <text
       xml:space="preserve"
       transform="matrix(1,0,0,-1,35.583,190.8467)"
       style="font-variant:normal;font-weight:bold;font-stretch:normal;font-size:10px;font-family:'Proxima Nova';-inkscape-font-specification:ProximaNova-Bold;writing-mode:lr-tb;fill:#646363;fill-opacity:1;fill-rule:nonzero;stroke:none"
       id="text285"><tspan
         x="0 6 11.74 17.530001 20.91 26.709999 29.27 35.27 41.060001 46.919998 52.349998 58.139999"
         y="0"
         sodipodi:role="line"
         id="tspan283">South Sudan </tspan></text>
    <text
       xml:space="preserve"
       transform="matrix(1,0,0,-1,96.283,190.8467)"
       style="font-variant:normal;font-weight:500;font-stretch:normal;font-size:10px;font-family:'Proxima Nova Medium';-inkscape-font-specification:ProximaNova-Medium;writing-mode:lr-tb;fill:#ef7d00;fill-opacity:1;fill-rule:nonzero;stroke:none"
       id="text289"><tspan
         x="0 5.6900001 11.38 17.26 19.639999 25.780001 31.92"
         y="0"
         sodipodi:role="line"
         id="tspan287">448,000</tspan></text>
    <g
       id="chart3-southsudan">
      <g
         id="g293"
         clip-path="url(#clipPath297)">
        <g
           id="g299"
           transform="translate(196.4492,196.4567)">
          <path
             d="m 0,0 h -48.807 c -1.252,0 -2.276,-1.024 -2.276,-2.275 0,-1.252 1.024,-2.276 2.276,-2.276 H 0 c 1.251,0 2.275,1.024 2.275,2.276 C 2.275,-1.024 1.251,0 0,0"
             style="fill:#e6e6e6;fill-opacity:1;fill-rule:nonzero;stroke:none"
             id="path301" />
        </g>
        <g
           id="g303"
           transform="translate(140.44,189.5622)">
          <path
             d="m 0,0 v 7.939 c 0,0.977 0.792,1.769 1.769,1.769 0.977,0 1.769,-0.792 1.769,-1.769 V 0 C 3.538,-0.978 2.746,-1.77 1.769,-1.77 0.792,-1.77 0,-0.978 0,0"
             style="fill:#e6e6e6;fill-opacity:1;fill-rule:nonzero;stroke:none"
             id="path305" />
        </g>
        <g
           id="g307"
           transform="translate(147.751,196.4733)">
          <path
             d="m 0,0 h 8.258 c 1.266,0 2.292,-1.026 2.292,-2.292 0,-1.266 -1.026,-2.292 -2.292,-2.292 H 0 c -1.266,0 -2.292,1.026 -2.292,2.292 C -2.292,-1.026 -1.266,0 0,0"
             style="fill:#ef7d00;fill-opacity:1;fill-rule:nonzero;stroke:none"
             id="path309" />
        </g>
      </g>
    </g>
    <text
       xml:space="preserve"
       transform="matrix(1,0,0,-1,77.3374,169.3643)"
       style="font-variant:normal;font-weight:bold;font-stretch:normal;font-size:10px;font-family:'Proxima Nova';-inkscape-font-specification:ProximaNova-Bold;writing-mode:lr-tb;fill:#646363;fill-opacity:1;fill-rule:nonzero;stroke:none"
       id="text313"><tspan
         x="0 2.74 6.3400002 11.77 17.620001"
         y="0"
         sodipodi:role="line"
         id="tspan311">Iraq </tspan></text>
    <text
       xml:space="preserve"
       transform="matrix(1,0,0,-1,97.5174,169.3643)"
       style="font-variant:normal;font-weight:500;font-stretch:normal;font-size:10px;font-family:'Proxima Nova Medium';-inkscape-font-specification:ProximaNova-Medium;writing-mode:lr-tb;fill:#ef7d00;fill-opacity:1;fill-rule:nonzero;stroke:none"
       id="text317"><tspan
         x="0 5.6500001 11.61 17.26 19.639999 25.780001 31.92"
         y="0"
         sodipodi:role="line"
         id="tspan315">363,000</tspan></text>
    <g
       id="chart3-iraq">
      <g
         id="g321"
         clip-path="url(#clipPath325)">
        <g
           id="g327"
           transform="translate(196.4492,174.7888)">
          <path
             d="m 0,0 h -48.807 c -1.252,0 -2.276,-1.023 -2.276,-2.275 0,-1.251 1.024,-2.276 2.276,-2.276 H 0 c 1.251,0 2.275,1.025 2.275,2.276 C 2.275,-1.023 1.251,0 0,0"
             style="fill:#e6e6e6;fill-opacity:1;fill-rule:nonzero;stroke:none"
             id="path329" />
        </g>
        <g
           id="g331"
           transform="translate(140.44,168.6862)">
          <path
             d="m 0,0 v 7.938 c 0,0.978 0.792,1.77 1.769,1.77 0.977,0 1.769,-0.792 1.769,-1.77 V 0 C 3.538,-0.978 2.746,-1.77 1.769,-1.77 0.792,-1.77 0,-0.978 0,0"
             style="fill:#e6e6e6;fill-opacity:1;fill-rule:nonzero;stroke:none"
             id="path333" />
        </g>
        <g
           id="g335"
           transform="translate(147.751,174.7771)">
          <path
             d="m 0,0 h 5.822 c 1.265,0 2.291,-1.025 2.291,-2.292 0,-1.266 -1.026,-2.292 -2.291,-2.292 H 0 c -1.266,0 -2.292,1.026 -2.292,2.292 C -2.292,-1.025 -1.266,0 0,0"
             style="fill:#ef7d00;fill-opacity:1;fill-rule:nonzero;stroke:none"
             id="path337" />
        </g>
      </g>
    </g>
    <text
       xml:space="preserve"
       transform="matrix(1,0,0,-1,34.583,149.3867)"
       style="font-variant:normal;font-weight:bold;font-stretch:normal;font-size:10px;font-family:'Proxima Nova';-inkscape-font-specification:ProximaNova-Bold;writing-mode:lr-tb;fill:#646363;fill-opacity:1;fill-rule:nonzero;stroke:none"
       id="text341"><tspan
         x="0 8.5500002 14.29 19.08 24.51 33.029999 38.889999 41.419998 47.27 53.060001 58.59"
         y="0"
         sodipodi:role="line"
         id="tspan339">Mozambique </tspan></text>
    <text
       xml:space="preserve"
       transform="matrix(1,0,0,-1,95.733,149.3867)"
       style="font-variant:normal;font-weight:500;font-stretch:normal;font-size:10px;font-family:'Proxima Nova Medium';-inkscape-font-specification:ProximaNova-Medium;writing-mode:lr-tb;fill:#ef7d00;fill-opacity:1;fill-rule:nonzero;stroke:none"
       id="text345"><tspan
         x="0 5.9099998 11.86 17.809999 20.190001 26.33 32.470001"
         y="0"
         sodipodi:role="line"
         id="tspan343">255,000</tspan></text>
    <g
       id="chart3-mozambique">
      <g
         id="g349"
         clip-path="url(#clipPath353)">
        <g
           id="g355"
           transform="translate(196.4492,154.7038)">
          <path
             d="m 0,0 h -48.807 c -1.252,0 -2.276,-1.023 -2.276,-2.275 0,-1.252 1.024,-2.276 2.276,-2.276 H 0 c 1.251,0 2.275,1.024 2.275,2.276 C 2.275,-1.023 1.251,0 0,0"
             style="fill:#e6e6e6;fill-opacity:1;fill-rule:nonzero;stroke:none"
             id="path357" />
        </g>
        <g
           id="g359"
           transform="translate(140.44,147.8093)">
          <path
             d="m 0,0 v 7.939 c 0,0.977 0.792,1.769 1.769,1.769 0.977,0 1.769,-0.792 1.769,-1.769 V 0 C 3.538,-0.977 2.746,-1.769 1.769,-1.769 0.792,-1.769 0,-0.977 0,0"
             style="fill:#e6e6e6;fill-opacity:1;fill-rule:nonzero;stroke:none"
             id="path361" />
        </g>
        <g
           id="g363"
           transform="translate(147.5952,154.7204)">
          <path
             d="m 0,0 h 2.726 c 1.266,0 2.292,-1.026 2.292,-2.292 0,-1.266 -1.026,-2.292 -2.292,-2.292 H 0 c -1.266,0 -2.292,1.026 -2.292,2.292 C -2.292,-1.026 -1.266,0 0,0"
             style="fill:#ef7d00;fill-opacity:1;fill-rule:nonzero;stroke:none"
             id="path365" />
        </g>
      </g>
    </g>
    <text
       xml:space="preserve"
       transform="matrix(1,0,0,-1,53.3726,127.958)"
       style="font-variant:normal;font-weight:bold;font-stretch:normal;font-size:10px;font-family:'Proxima Nova';-inkscape-font-specification:ProximaNova-Bold;writing-mode:lr-tb;fill:#646363;fill-opacity:1;fill-rule:nonzero;stroke:none"
       id="text369"><tspan
         x="0 8.5500002 13.68 19.110001 24.9 33.419998 38.849998 42.450001"
         y="0"
         sodipodi:role="line"
         id="tspan367">Myanmar </tspan></text>
    <text
       xml:space="preserve"
       transform="matrix(1,0,0,-1,98.3826,127.958)"
       style="font-variant:normal;font-weight:500;font-stretch:normal;font-size:10px;font-family:'Proxima Nova Medium';-inkscape-font-specification:ProximaNova-Medium;writing-mode:lr-tb;fill:#ef7d00;fill-opacity:1;fill-rule:nonzero;stroke:none"
       id="text373"><tspan
         x="0 3.5899999 9.2799997 15.16 17.540001 23.68 29.82"
         y="0"
         sodipodi:role="line"
         id="tspan371">148,000</tspan></text>
    <g
       id="chart3-myanmar">
      <g
         id="g377"
         clip-path="url(#clipPath381)">
        <g
           id="g383"
           transform="translate(196.4492,133.8278)">
          <path
             d="m 0,0 h -48.807 c -1.252,0 -2.276,-1.024 -2.276,-2.275 0,-1.252 1.024,-2.276 2.276,-2.276 H 0 c 1.251,0 2.275,1.024 2.275,2.276 C 2.275,-1.024 1.251,0 0,0"
             style="fill:#e6e6e6;fill-opacity:1;fill-rule:nonzero;stroke:none"
             id="path385" />
        </g>
        <g
           id="g387"
           transform="translate(140.44,126.9333)">
          <path
             d="m 0,0 v 7.938 c 0,0.978 0.792,1.77 1.769,1.77 0.977,0 1.769,-0.792 1.769,-1.77 V 0 C 3.538,-0.978 2.746,-1.77 1.769,-1.77 0.792,-1.77 0,-0.978 0,0"
             style="fill:#e6e6e6;fill-opacity:1;fill-rule:nonzero;stroke:none"
             id="path389" />
        </g>
        <g
           id="g391"
           transform="translate(147.4243,133.8444)">
          <path
             d="m 0,0 v 0 c 1.172,0 2.122,-0.95 2.122,-2.122 v -0.341 c 0,-1.172 -0.95,-2.121 -2.122,-2.121 -1.171,0 -2.121,0.949 -2.121,2.121 v 0.341 C -2.121,-0.95 -1.171,0 0,0"
             style="fill:#ef7d00;fill-opacity:1;fill-rule:nonzero;stroke:none"
             id="path393" />
        </g>
      </g>
    </g>
    <g
       id="g395">
      <g
         id="g397"
         clip-path="url(#clipPath401)">
        <g
           id="g403"
           transform="translate(158.7446,412.2942)">
          <path
             d="m 0,0 v 0 c -2.833,0 -5.129,2.296 -5.129,5.13 0,2.833 2.296,5.129 5.129,5.129 2.833,0 5.13,-2.296 5.13,-5.129 C 5.13,2.296 2.833,0 0,0"
             style="fill:#5ed9ee;fill-opacity:1;fill-rule:nonzero;stroke:none"
             id="path405" />
        </g>
        <g
           id="g407"
           transform="translate(221.7988,412.2942)">
          <path
             d="m 0,0 v 0 c -2.833,0 -5.129,2.296 -5.129,5.13 0,2.833 2.296,5.129 5.129,5.129 2.833,0 5.13,-2.296 5.13,-5.129 C 5.13,2.296 2.833,0 0,0"
             style="fill:#193256;fill-opacity:1;fill-rule:nonzero;stroke:none"
             id="path409" />
        </g>
        <g
           id="g411"
           transform="translate(205.4292,412.2942)">
          <path
             d="m 0,0 v 0 c -2.833,0 -5.13,2.296 -5.13,5.13 0,2.833 2.297,5.129 5.13,5.129 2.833,0 5.13,-2.296 5.13,-5.129 C 5.13,2.296 2.833,0 0,0"
             style="fill:#06179e;fill-opacity:1;fill-rule:nonzero;stroke:none"
             id="path413" />
        </g>
        <g
           id="g415"
           transform="translate(191.4702,412.2942)">
          <path
             d="m 0,0 v 0 c -2.833,0 -5.13,2.296 -5.13,5.13 0,2.833 2.297,5.129 5.13,5.129 2.833,0 5.13,-2.296 5.13,-5.129 C 5.13,2.296 2.833,0 0,0"
             style="fill:#0874e2;fill-opacity:1;fill-rule:nonzero;stroke:none"
             id="path417" />
        </g>
        <g
           id="g419"
           transform="translate(175.4097,412.2942)">
          <path
             d="m 0,0 v 0 c -2.833,0 -5.129,2.296 -5.129,5.13 0,2.833 2.296,5.129 5.129,5.129 2.833,0 5.13,-2.296 5.13,-5.129 C 5.13,2.296 2.833,0 0,0"
             style="fill:#018eca;fill-opacity:1;fill-rule:nonzero;stroke:none"
             id="path421" />
        </g>
      </g>
    </g>
  </g>
</svg>
