<?xml version="1.0" encoding="UTF-8" standalone="no"?>
<!-- Created with Inkscape (http://www.inkscape.org/) -->

<svg
   version="1.1"
   id="svg25"
   width="348.45468"
   height="573.276"
   viewBox="0 0 348.45468 573.276"
   sodipodi:docname="chart2.svg"
   inkscape:version="1.2.1 (0f2f062aeb, 2022-09-21, custom)"
   xmlns:inkscape="http://www.inkscape.org/namespaces/inkscape"
   xmlns:sodipodi="http://sodipodi.sourceforge.net/DTD/sodipodi-0.dtd"
   xmlns="http://www.w3.org/2000/svg"
   xmlns:svg="http://www.w3.org/2000/svg">
  <defs
     id="defs29">
    <clipPath
       clipPathUnits="userSpaceOnUse"
       id="clipPath51">
      <path
         d="M 0,429.957 H 261.341 V 0 H 0 Z"
         id="path49" />
    </clipPath>
    <clipPath
       clipPathUnits="userSpaceOnUse"
       id="clipPath77">
      <path
         d="M 0,429.957 H 261.341 V 0 H 0 Z"
         id="path75" />
    </clipPath>
    <clipPath
       clipPathUnits="userSpaceOnUse"
       id="clipPath101">
      <path
         d="M 0,429.957 H 261.341 V 0 H 0 Z"
         id="path99" />
    </clipPath>
    <clipPath
       clipPathUnits="userSpaceOnUse"
       id="clipPath125">
      <path
         d="M 0,429.957 H 261.341 V 0 H 0 Z"
         id="path123" />
    </clipPath>
    <clipPath
       clipPathUnits="userSpaceOnUse"
       id="clipPath153">
      <path
         d="M 0,429.957 H 261.341 V 0 H 0 Z"
         id="path151" />
    </clipPath>
    <clipPath
       clipPathUnits="userSpaceOnUse"
       id="clipPath181">
      <path
         d="M 0,429.957 H 261.341 V 0 H 0 Z"
         id="path179" />
    </clipPath>
    <clipPath
       clipPathUnits="userSpaceOnUse"
       id="clipPath209">
      <path
         d="M 0,429.957 H 261.341 V 0 H 0 Z"
         id="path207" />
    </clipPath>
    <clipPath
       clipPathUnits="userSpaceOnUse"
       id="clipPath237">
      <path
         d="M 0,429.957 H 261.341 V 0 H 0 Z"
         id="path235" />
    </clipPath>
    <clipPath
       clipPathUnits="userSpaceOnUse"
       id="clipPath265">
      <path
         d="M 0,429.957 H 261.341 V 0 H 0 Z"
         id="path263" />
    </clipPath>
    <clipPath
       clipPathUnits="userSpaceOnUse"
       id="clipPath293">
      <path
         d="M 0,429.957 H 261.341 V 0 H 0 Z"
         id="path291" />
    </clipPath>
    <clipPath
       clipPathUnits="userSpaceOnUse"
       id="clipPath321">
      <path
         d="M 0,429.957 H 261.341 V 0 H 0 Z"
         id="path319" />
    </clipPath>
    <clipPath
       clipPathUnits="userSpaceOnUse"
       id="clipPath349">
      <path
         d="M 0,429.957 H 261.341 V 0 H 0 Z"
         id="path347" />
    </clipPath>
    <clipPath
       clipPathUnits="userSpaceOnUse"
       id="clipPath377">
      <path
         d="M 0,429.957 H 261.341 V 0 H 0 Z"
         id="path375" />
    </clipPath>
    <clipPath
       clipPathUnits="userSpaceOnUse"
       id="clipPath397">
      <path
         d="M 0,429.957 H 261.341 V 0 H 0 Z"
         id="path395" />
    </clipPath>
  </defs>
  <sodipodi:namedview
     id="namedview27"
     pagecolor="#ffffff"
     bordercolor="#666666"
     borderopacity="1.0"
     inkscape:showpageshadow="2"
     inkscape:pageopacity="0.0"
     inkscape:pagecheckerboard="0"
     inkscape:deskcolor="#d1d1d1"
     showgrid="false"
     inkscape:zoom="1.4879395"
     inkscape:cx="174.40225"
     inkscape:cy="286.638"
     inkscape:window-width="1920"
     inkscape:window-height="1055"
     inkscape:window-x="1920"
     inkscape:window-y="0"
     inkscape:window-maximized="1"
     inkscape:current-layer="g33">
    <inkscape:page
       x="0"
       y="0"
       id="page31"
       width="348.45468"
       height="573.276" />
  </sodipodi:namedview>
  <g
     id="g33"
     inkscape:groupmode="layer"
     inkscape:label="Page 1"
     transform="matrix(1.3333333,0,0,-1.3333333,0,573.276)">
    <text
       xml:space="preserve"
       transform="matrix(1,0,0,-1,93.3955,150.3271)"
       style="font-variant:normal;font-weight:bold;font-stretch:normal;font-size:10px;font-family:'Proxima Nova';-inkscape-font-specification:ProximaNova-Bold;writing-mode:lr-tb;fill:#646363;fill-opacity:1;fill-rule:nonzero;stroke:none"
       id="chart2-somalia"><tspan
         x="0 6 11.74 20.26 25.690001 28.219999 30.75 36.18"
         y="0"
         sodipodi:role="line"
         id="tspan35">Somalia </tspan></text>
    <text
       xml:space="preserve"
       transform="matrix(1,0,0,-1,132.1355,150.3271)"
       style="font-variant:normal;font-weight:500;font-stretch:normal;font-size:10px;font-family:'Proxima Nova Medium';-inkscape-font-specification:ProximaNova-Medium;writing-mode:lr-tb;fill:#ef7d00;fill-opacity:1;fill-rule:nonzero;stroke:none"
       id="text43"><tspan
         x="0"
         y="0"
         id="tspan39">-</tspan><tspan
         x="3"
         y="0"
         id="tspan41"> </tspan></text>
    <g
       id="g45">
      <g
         id="g47"
         clip-path="url(#clipPath51)">
        <g
           id="g53"
           transform="translate(197.5833,156.1136)">
          <path
             d="m 0,0 h -48.807 c -1.252,0 -2.276,-1.024 -2.276,-2.275 0,-1.252 1.024,-2.276 2.276,-2.276 H 0 c 1.251,0 2.275,1.024 2.275,2.276 C 2.275,-1.024 1.251,0 0,0"
             style="fill:#e6e6e6;fill-opacity:1;fill-rule:nonzero;stroke:none"
             id="path55" />
        </g>
        <g
           id="g57"
           transform="translate(141.574,149.2194)">
          <path
             d="m 0,0 v 7.939 c 0,0.977 0.792,1.769 1.769,1.769 0.977,0 1.769,-0.792 1.769,-1.769 V 0 C 3.538,-0.977 2.746,-1.769 1.769,-1.769 0.792,-1.769 0,-0.977 0,0"
             style="fill:#e6e6e6;fill-opacity:1;fill-rule:nonzero;stroke:none"
             id="path59" />
        </g>
      </g>
    </g>
    <text
       xml:space="preserve"
       transform="matrix(1,0,0,-1,106.9551,129.2344)"
       style="font-variant:normal;font-weight:bold;font-stretch:normal;font-size:10px;font-family:'Proxima Nova';-inkscape-font-specification:ProximaNova-Bold;writing-mode:lr-tb;fill:#646363;fill-opacity:1;fill-rule:nonzero;stroke:none"
       id="text63"><tspan
         x="0 5.9299998 11.06 14.66 17.190001 22.620001"
         y="0"
         sodipodi:role="line"
         id="tspan61">Syria </tspan></text>
    <text
       xml:space="preserve"
       transform="matrix(1,0,0,-1,132.1351,129.2344)"
       style="font-variant:normal;font-weight:500;font-stretch:normal;font-size:10px;font-family:'Proxima Nova Medium';-inkscape-font-specification:ProximaNova-Medium;writing-mode:lr-tb;fill:#ef7d00;fill-opacity:1;fill-rule:nonzero;stroke:none"
       id="text69"><tspan
         x="0"
         y="0"
         id="tspan65">-</tspan><tspan
         x="3"
         y="0"
         id="tspan67"> </tspan></text>
    <g
       id="g71">
      <g
         id="g73"
         clip-path="url(#clipPath77)">
        <g
           id="g79"
           transform="translate(197.5833,135.2373)">
          <path
             d="m 0,0 h -48.807 c -1.252,0 -2.276,-1.024 -2.276,-2.275 0,-1.252 1.024,-2.276 2.276,-2.276 H 0 c 1.251,0 2.275,1.024 2.275,2.276 C 2.275,-1.024 1.251,0 0,0"
             style="fill:#e6e6e6;fill-opacity:1;fill-rule:nonzero;stroke:none"
             id="path81" />
        </g>
        <g
           id="g83"
           transform="translate(141.574,128.343)">
          <path
             d="m 0,0 v 7.939 c 0,0.977 0.792,1.769 1.769,1.769 0.977,0 1.769,-0.792 1.769,-1.769 V 0 C 3.538,-0.977 2.746,-1.769 1.769,-1.769 0.792,-1.769 0,-0.977 0,0"
             style="fill:#e6e6e6;fill-opacity:1;fill-rule:nonzero;stroke:none"
             id="path85" />
        </g>
      </g>
    </g>
    <text
       xml:space="preserve"
       transform="matrix(1,0,0,-1,41.936,379.3257)"
       style="font-variant:normal;font-weight:bold;font-stretch:normal;font-size:10px;font-family:'Proxima Nova';-inkscape-font-specification:ProximaNova-Bold;writing-mode:lr-tb;fill:#646363;fill-opacity:1;fill-rule:nonzero;stroke:none"
       id="text89"><tspan
         x="0 6.6399999 9.9099998 15.76 21.559999 26.99 32.779999 35.310001 40.080002 43.459999 48.889999 54.68"
         y="0"
         sodipodi:role="line"
         id="tspan87">Afghanistan </tspan></text>
    <text
       xml:space="preserve"
       transform="matrix(1,0,0,-1,99.176,379.3257)"
       style="font-variant:normal;font-weight:500;font-stretch:normal;font-size:10px;font-family:'Proxima Nova Medium';-inkscape-font-specification:ProximaNova-Medium;writing-mode:lr-tb;fill:#018eca;fill-opacity:1;fill-rule:nonzero;stroke:none"
       id="text93"><tspan
         x="0 5.6900001 11.57 15.16 17.540001 23.68 29.82 35.959999"
         y="0"
         sodipodi:role="line"
         id="tspan91">481,000 </tspan></text>
    <g
       id="chart2-afghanistan">
      <g
         id="g97"
         clip-path="url(#clipPath101)">
        <g
           id="g103"
           transform="translate(141.574,378.8629)">
          <path
             d="m 0,0 v 7.939 c 0,0.977 0.792,1.769 1.769,1.769 0.977,0 1.769,-0.792 1.769,-1.769 V 0 C 3.538,-0.977 2.746,-1.769 1.769,-1.769 0.792,-1.769 0,-0.977 0,0"
             style="fill:#e6e6e6;fill-opacity:1;fill-rule:nonzero;stroke:none"
             id="path105" />
        </g>
        <g
           id="g107"
           transform="translate(148.8852,385.1588)">
          <path
             d="m 0,0 h 48.589 c 1.266,0 2.292,-1.026 2.292,-2.292 0,-1.266 -1.026,-2.292 -2.292,-2.292 H 0 c -1.266,0 -2.292,1.026 -2.292,2.292 C -2.292,-1.026 -1.266,0 0,0"
             style="fill:#018eca;fill-opacity:1;fill-rule:nonzero;stroke:none"
             id="path109" />
        </g>
      </g>
    </g>
    <text
       xml:space="preserve"
       transform="matrix(1,0,0,-1,59.2559,358.7427)"
       style="font-variant:normal;font-weight:bold;font-stretch:normal;font-size:10px;font-family:'Proxima Nova';-inkscape-font-specification:ProximaNova-Bold;writing-mode:lr-tb;fill:#646363;fill-opacity:1;fill-rule:nonzero;stroke:none"
       id="text113"><tspan
         x="0 5.8299999 9.21 15.01 17.540001 23.280001 29.129999 31.66 37.09"
         y="0"
         sodipodi:role="line"
         id="tspan111">Ethiopia </tspan></text>
    <text
       xml:space="preserve"
       transform="matrix(1,0,0,-1,98.9059,358.7427)"
       style="font-variant:normal;font-weight:500;font-stretch:normal;font-size:10px;font-family:'Proxima Nova Medium';-inkscape-font-specification:ProximaNova-Medium;writing-mode:lr-tb;fill:#018eca;fill-opacity:1;fill-rule:nonzero;stroke:none"
       id="text117"><tspan
         x="0 3.5899999 9.4700003 15.43 17.809999 23.950001 30.09"
         y="0"
         sodipodi:role="line"
         id="tspan115">186,000</tspan></text>
    <g
       id="chart2-ethiopia">
      <g
         id="g121"
         clip-path="url(#clipPath125)">
        <g
           id="g127"
           transform="translate(197.5833,364.0967)">
          <path
             d="m 0,0 h -48.807 c -1.252,0 -2.276,-1.024 -2.276,-2.275 0,-1.252 1.024,-2.276 2.276,-2.276 H 0 c 1.251,0 2.275,1.024 2.275,2.276 C 2.275,-1.024 1.251,0 0,0"
             style="fill:#e6e6e6;fill-opacity:1;fill-rule:nonzero;stroke:none"
             id="path129" />
        </g>
        <g
           id="g131"
           transform="translate(141.574,357.8518)">
          <path
             d="m 0,0 v 7.939 c 0,0.977 0.792,1.769 1.769,1.769 0.977,0 1.769,-0.792 1.769,-1.769 V 0 C 3.538,-0.977 2.746,-1.769 1.769,-1.769 0.792,-1.769 0,-0.977 0,0"
             style="fill:#e6e6e6;fill-opacity:1;fill-rule:nonzero;stroke:none"
             id="path133" />
        </g>
        <g
           id="g135"
           transform="translate(148.8969,364.125)">
          <path
             d="m 0,0 h 16.017 c 1.273,0 2.304,-1.031 2.304,-2.304 0,-1.272 -1.031,-2.303 -2.304,-2.303 L 0,-4.607 c -1.272,0 -2.304,1.031 -2.304,2.303 C -2.304,-1.031 -1.272,0 0,0"
             style="fill:#018eca;fill-opacity:1;fill-rule:nonzero;stroke:none"
             id="path137" />
        </g>
      </g>
    </g>
    <text
       xml:space="preserve"
       transform="matrix(1,0,0,-1,38.9057,338.4873)"
       style="font-variant:normal;font-weight:bold;font-stretch:normal;font-size:10px;font-family:'Proxima Nova';-inkscape-font-specification:ProximaNova-Bold;writing-mode:lr-tb;fill:#646363;fill-opacity:1;fill-rule:nonzero;stroke:none"
       id="text141"><tspan
         x="0 6 11.74 17.530001 20.91 26.709999 29.27 35.27 41.060001 46.919998 52.349998 58.139999"
         y="0"
         sodipodi:role="line"
         id="tspan139">South Sudan </tspan></text>
    <text
       xml:space="preserve"
       transform="matrix(1,0,0,-1,99.6057,338.4873)"
       style="font-variant:normal;font-weight:500;font-stretch:normal;font-size:10px;font-family:'Proxima Nova Medium';-inkscape-font-specification:ProximaNova-Medium;writing-mode:lr-tb;fill:#018eca;fill-opacity:1;fill-rule:nonzero;stroke:none"
       id="text145"><tspan
         x="0 3.5899999 8.8199997 14.73 17.110001 23.25 29.389999"
         y="0"
         sodipodi:role="line"
         id="tspan143">172,000</tspan></text>
    <g
       id="chart2-southsudan">
      <g
         id="g149"
         clip-path="url(#clipPath153)">
        <g
           id="g155"
           transform="translate(197.5833,343.0784)">
          <path
             d="m 0,0 h -48.807 c -1.252,0 -2.276,-1.024 -2.276,-2.275 0,-1.252 1.024,-2.276 2.276,-2.276 H 0 c 1.251,0 2.275,1.024 2.275,2.276 C 2.275,-1.024 1.251,0 0,0"
             style="fill:#e6e6e6;fill-opacity:1;fill-rule:nonzero;stroke:none"
             id="path157" />
        </g>
        <g
           id="g159"
           transform="translate(141.574,336.9754)">
          <path
             d="m 0,0 v 7.939 c 0,0.977 0.792,1.769 1.769,1.769 0.977,0 1.769,-0.792 1.769,-1.769 V 0 C 3.538,-0.977 2.746,-1.769 1.769,-1.769 0.792,-1.769 0,-0.977 0,0"
             style="fill:#e6e6e6;fill-opacity:1;fill-rule:nonzero;stroke:none"
             id="path161" />
        </g>
        <g
           id="g163"
           transform="translate(148.8042,343.1067)">
          <path
             d="m 0,0 h 14.453 c 1.272,0 2.303,-1.031 2.303,-2.304 0,-1.272 -1.031,-2.303 -2.303,-2.303 L 0,-4.607 c -1.272,0 -2.304,1.031 -2.304,2.303 C -2.304,-1.031 -1.272,0 0,0"
             style="fill:#018eca;fill-opacity:1;fill-rule:nonzero;stroke:none"
             id="path165" />
        </g>
      </g>
    </g>
    <text
       xml:space="preserve"
       transform="matrix(1,0,0,-1,54.5258,317.207)"
       style="font-variant:normal;font-weight:bold;font-stretch:normal;font-size:10px;font-family:'Proxima Nova';-inkscape-font-specification:ProximaNova-Bold;writing-mode:lr-tb;fill:#646363;fill-opacity:1;fill-rule:nonzero;stroke:none"
       id="chart2-drcongo"><tspan
         x="0 7.1799998 13.61 16.17 23.040001 28.780001 34.57 40.419998 46.16"
         y="0"
         sodipodi:role="line"
         id="tspan167">DR Congo </tspan></text>
    <text
       xml:space="preserve"
       transform="matrix(1,0,0,-1,103.2458,317.207)"
       style="font-variant:normal;font-weight:500;font-stretch:normal;font-size:10px;font-family:'Proxima Nova Medium';-inkscape-font-specification:ProximaNova-Medium;writing-mode:lr-tb;fill:#018eca;fill-opacity:1;fill-rule:nonzero;stroke:none"
       id="text173"><tspan
         x="0 5.23 11.091 13.471 19.611 25.750999"
         y="0"
         sodipodi:role="line"
         id="tspan171">70,000</tspan></text>
    <g
       id="g175">
      <g
         id="g177"
         clip-path="url(#clipPath181)">
        <g
           id="g183"
           transform="translate(197.5833,322.9933)">
          <path
             d="m 0,0 h -48.807 c -1.252,0 -2.276,-1.024 -2.276,-2.275 0,-1.252 1.024,-2.276 2.276,-2.276 H 0 c 1.251,0 2.275,1.024 2.275,2.276 C 2.275,-1.024 1.251,0 0,0"
             style="fill:#e6e6e6;fill-opacity:1;fill-rule:nonzero;stroke:none"
             id="path185" />
        </g>
        <g
           id="g187"
           transform="translate(141.574,316.0991)">
          <path
             d="m 0,0 v 7.939 c 0,0.977 0.792,1.769 1.769,1.769 0.977,0 1.769,-0.792 1.769,-1.769 V 0 C 3.538,-0.977 2.746,-1.769 1.769,-1.769 0.792,-1.769 0,-0.977 0,0"
             style="fill:#e6e6e6;fill-opacity:1;fill-rule:nonzero;stroke:none"
             id="path189" />
        </g>
        <g
           id="g191"
           transform="translate(148.8969,323.0216)">
          <path
             d="M 0,0 H 3.118 C 4.39,0 5.422,-1.031 5.422,-2.304 5.422,-3.576 4.39,-4.607 3.118,-4.607 H 0 c -1.272,0 -2.304,1.031 -2.304,2.303 C -2.304,-1.031 -1.272,0 0,0"
             style="fill:#018eca;fill-opacity:1;fill-rule:nonzero;stroke:none"
             id="path193" />
        </g>
      </g>
    </g>
    <text
       xml:space="preserve"
       transform="matrix(1,0,0,-1,41.6157,296.0381)"
       style="font-variant:normal;font-weight:bold;font-stretch:normal;font-size:10px;font-family:'Proxima Nova';-inkscape-font-specification:ProximaNova-Bold;writing-mode:lr-tb;fill:#646363;fill-opacity:1;fill-rule:nonzero;stroke:none"
       id="chart2-mozambique"><tspan
         x="0 8.5500002 14.29 19.08 24.51 33.029999 38.889999 41.419998 47.27 53.060001 58.59"
         y="0"
         sodipodi:role="line"
         id="tspan195">Mozambique </tspan></text>
    <text
       xml:space="preserve"
       transform="matrix(1,0,0,-1,102.7657,296.0381)"
       style="font-variant:normal;font-weight:500;font-stretch:normal;font-size:10px;font-family:'Proxima Nova Medium';-inkscape-font-specification:ProximaNova-Medium;writing-mode:lr-tb;fill:#018eca;fill-opacity:1;fill-rule:nonzero;stroke:none"
       id="text201"><tspan
         x="0 5.6900001 11.57 13.95 20.09 26.23 32.369999"
         y="0"
         sodipodi:role="line"
         id="tspan199">48,000 </tspan></text>
    <g
       id="g203">
      <g
         id="g205"
         clip-path="url(#clipPath209)">
        <g
           id="g211"
           transform="translate(197.5833,302.0819)">
          <path
             d="m 0,0 h -48.807 c -1.252,0 -2.276,-1.024 -2.276,-2.275 0,-1.252 1.024,-2.276 2.276,-2.276 H 0 c 1.251,0 2.275,1.024 2.275,2.276 C 2.275,-1.024 1.251,0 0,0"
             style="fill:#e6e6e6;fill-opacity:1;fill-rule:nonzero;stroke:none"
             id="path213" />
        </g>
        <g
           id="g215"
           transform="translate(141.574,295.1876)">
          <path
             d="m 0,0 v 7.939 c 0,0.977 0.792,1.769 1.769,1.769 0.977,0 1.769,-0.792 1.769,-1.769 V 0 C 3.538,-0.977 2.746,-1.769 1.769,-1.769 0.792,-1.769 0,-0.977 0,0"
             style="fill:#e6e6e6;fill-opacity:1;fill-rule:nonzero;stroke:none"
             id="path217" />
        </g>
        <g
           id="g219"
           transform="translate(148.8969,302.1101)">
          <path
             d="m 0,0 h 0.678 c 1.273,0 2.304,-1.031 2.304,-2.304 0,-1.272 -1.031,-2.303 -2.304,-2.303 H 0 c -1.272,0 -2.304,1.031 -2.304,2.303 C -2.304,-1.031 -1.272,0 0,0"
             style="fill:#018eca;fill-opacity:1;fill-rule:nonzero;stroke:none"
             id="path221" />
        </g>
      </g>
    </g>
    <text
       xml:space="preserve"
       transform="matrix(1,0,0,-1,69.9658,275.2183)"
       style="font-variant:normal;font-weight:bold;font-stretch:normal;font-size:10px;font-family:'Proxima Nova';-inkscape-font-specification:ProximaNova-Bold;writing-mode:lr-tb;fill:#646363;fill-opacity:1;fill-rule:nonzero;stroke:none"
       id="chart2-nigeria"><tspan
         x="0 7.29 9.8199997 15.67 21.200001 24.799999 27.33"
         y="0"
         sodipodi:role="line"
         id="tspan223">Nigeria</tspan></text>
    <text
       xml:space="preserve"
       transform="matrix(1,0,0,-1,102.7258,275.2183)"
       style="font-variant:normal;font-weight:500;font-stretch:normal;font-size:10px;font-family:'Proxima Nova Medium';-inkscape-font-specification:ProximaNova-Medium;writing-mode:lr-tb;fill:#018eca;fill-opacity:1;fill-rule:nonzero;stroke:none"
       id="text229"><tspan
         x="0 5.6500001 11.61 13.99 20.129999 26.27"
         y="0"
         sodipodi:role="line"
         id="tspan227">36,000</tspan></text>
    <g
       id="g231">
      <g
         id="g233"
         clip-path="url(#clipPath237)">
        <g
           id="g239"
           transform="translate(197.5833,280.5562)">
          <path
             d="m 0,0 h -48.807 c -1.252,0 -2.276,-1.024 -2.276,-2.275 0,-1.252 1.024,-2.276 2.276,-2.276 H 0 c 1.251,0 2.275,1.024 2.275,2.276 C 2.275,-1.024 1.251,0 0,0"
             style="fill:#e6e6e6;fill-opacity:1;fill-rule:nonzero;stroke:none"
             id="path241" />
        </g>
        <g
           id="g243"
           transform="translate(141.574,274.3112)">
          <path
             d="m 0,0 v 7.939 c 0,0.977 0.792,1.769 1.769,1.769 0.977,0 1.769,-0.792 1.769,-1.769 V 0 C 3.538,-0.977 2.746,-1.769 1.769,-1.769 0.792,-1.769 0,-0.977 0,0"
             style="fill:#e6e6e6;fill-opacity:1;fill-rule:nonzero;stroke:none"
             id="path245" />
        </g>
        <g
           id="g247"
           transform="translate(149.2269,276.005)">
          <path
             d="m 0,0 h -0.451 c -1.252,0 -2.276,1.024 -2.276,2.276 0,1.251 1.024,2.275 2.276,2.275 H 0 1.512 V 0 Z"
             style="fill:#018eca;fill-opacity:1;fill-rule:nonzero;stroke:none"
             id="path249" />
        </g>
      </g>
    </g>
    <text
       xml:space="preserve"
       transform="matrix(1,0,0,-1,72.7255,254.3257)"
       style="font-variant:normal;font-weight:bold;font-stretch:normal;font-size:10px;font-family:'Proxima Nova';-inkscape-font-specification:ProximaNova-Bold;writing-mode:lr-tb;fill:#646363;fill-opacity:1;fill-rule:nonzero;stroke:none"
       id="chart2-sudan"><tspan
         x="0 6 11.79 17.65 23.08 28.870001"
         y="0"
         sodipodi:role="line"
         id="tspan251">Sudan </tspan></text>
    <text
       xml:space="preserve"
       transform="matrix(1,0,0,-1,104.1555,254.3257)"
       style="font-variant:normal;font-weight:500;font-stretch:normal;font-size:10px;font-family:'Proxima Nova Medium';-inkscape-font-specification:ProximaNova-Medium;writing-mode:lr-tb;fill:#018eca;fill-opacity:1;fill-rule:nonzero;stroke:none"
       id="text257"><tspan
         x="0 5.9099998 10.18 12.56 18.700001 24.84"
         y="0"
         sodipodi:role="line"
         id="tspan255">27,000</tspan></text>
    <g
       id="g259">
      <g
         id="g261"
         clip-path="url(#clipPath265)">
        <g
           id="g267"
           transform="translate(197.5833,259.6798)">
          <path
             d="m 0,0 h -48.807 c -1.252,0 -2.276,-1.024 -2.276,-2.275 0,-1.252 1.024,-2.276 2.276,-2.276 H 0 c 1.251,0 2.275,1.024 2.275,2.276 C 2.275,-1.024 1.251,0 0,0"
             style="fill:#e6e6e6;fill-opacity:1;fill-rule:nonzero;stroke:none"
             id="path269" />
        </g>
        <g
           id="g271"
           transform="translate(141.574,253.4349)">
          <path
             d="m 0,0 v 7.939 c 0,0.977 0.792,1.769 1.769,1.769 0.977,0 1.769,-0.792 1.769,-1.769 V 0 C 3.538,-0.977 2.746,-1.769 1.769,-1.769 0.792,-1.769 0,-0.977 0,0"
             style="fill:#e6e6e6;fill-opacity:1;fill-rule:nonzero;stroke:none"
             id="path273" />
        </g>
        <g
           id="g275"
           transform="translate(149.2269,255.1288)">
          <path
             d="m 0,0 h -0.451 c -1.252,0 -2.276,1.024 -2.276,2.276 0,1.251 1.024,2.275 2.276,2.275 H 0 1.075 V 0 Z"
             style="fill:#018eca;fill-opacity:1;fill-rule:nonzero;stroke:none"
             id="path277" />
        </g>
      </g>
    </g>
    <text
       xml:space="preserve"
       transform="matrix(1,0,0,-1,91.5854,233.5083)"
       style="font-variant:normal;font-weight:bold;font-stretch:normal;font-size:10px;font-family:'Proxima Nova';-inkscape-font-specification:ProximaNova-Bold;writing-mode:lr-tb;fill:#646363;fill-opacity:1;fill-rule:nonzero;stroke:none"
       id="chart2-iraq"><tspan
         x="0 2.74 6.3400002 11.77 17.620001"
         y="0"
         sodipodi:role="line"
         id="tspan279">Iraq </tspan></text>
    <text
       xml:space="preserve"
       transform="matrix(1,0,0,-1,111.7654,233.5083)"
       style="font-variant:normal;font-weight:500;font-stretch:normal;font-size:10px;font-family:'Proxima Nova Medium';-inkscape-font-specification:ProximaNova-Medium;writing-mode:lr-tb;fill:#018eca;fill-opacity:1;fill-rule:nonzero;stroke:none"
       id="text285"><tspan
         x="0 5.96 7.5 11.09 17.23"
         y="0"
         sodipodi:role="line"
         id="tspan283">6,100</tspan></text>
    <g
       id="g287">
      <g
         id="g289"
         clip-path="url(#clipPath293)">
        <g
           id="g295"
           transform="translate(197.5833,238.6615)">
          <path
             d="m 0,0 h -48.807 c -1.252,0 -2.276,-1.024 -2.276,-2.275 0,-1.252 1.024,-2.276 2.276,-2.276 H 0 c 1.251,0 2.275,1.024 2.275,2.276 C 2.275,-1.024 1.251,0 0,0"
             style="fill:#e6e6e6;fill-opacity:1;fill-rule:nonzero;stroke:none"
             id="path297" />
        </g>
        <g
           id="g299"
           transform="translate(141.574,232.5585)">
          <path
             d="m 0,0 v 7.939 c 0,0.977 0.792,1.769 1.769,1.769 0.977,0 1.769,-0.792 1.769,-1.769 V 0 C 3.538,-0.977 2.746,-1.769 1.769,-1.769 0.792,-1.769 0,-0.977 0,0"
             style="fill:#e6e6e6;fill-opacity:1;fill-rule:nonzero;stroke:none"
             id="path301" />
        </g>
        <g
           id="g303"
           transform="translate(149.2269,234.1105)">
          <path
             d="m 0,0 h -0.451 c -1.252,0 -2.276,1.024 -2.276,2.276 0,1.251 1.024,2.275 2.276,2.275 H 0 -0.2 L -0.2,0 Z"
             style="fill:#018eca;fill-opacity:1;fill-rule:nonzero;stroke:none"
             id="path305" />
        </g>
      </g>
    </g>
    <text
       xml:space="preserve"
       transform="matrix(1,0,0,-1,75.9956,212.6875)"
       style="font-variant:normal;font-weight:bold;font-stretch:normal;font-size:10px;font-family:'Proxima Nova';-inkscape-font-specification:ProximaNova-Bold;writing-mode:lr-tb;fill:#646363;fill-opacity:1;fill-rule:nonzero;stroke:none"
       id="chart2-yemen"><tspan
         x="0 5.21 10.74 19.26 24.790001 30.58"
         y="0"
         sodipodi:role="line"
         id="tspan307">Yemen </tspan></text>
    <text
       xml:space="preserve"
       transform="matrix(1,0,0,-1,109.1356,212.6875)"
       style="font-variant:normal;font-weight:500;font-stretch:normal;font-size:10px;font-family:'Proxima Nova Medium';-inkscape-font-specification:ProximaNova-Medium;writing-mode:lr-tb;fill:#018eca;fill-opacity:1;fill-rule:nonzero;stroke:none"
       id="text313"><tspan
         x="0 5.6500001 8.0299997 13.72 19.860001"
         y="0"
         sodipodi:role="line"
         id="tspan311">3,400</tspan></text>
    <g
       id="g315">
      <g
         id="g317"
         clip-path="url(#clipPath321)">
        <g
           id="g323"
           transform="translate(197.5833,218.5764)">
          <path
             d="m 0,0 h -48.807 c -1.252,0 -2.276,-1.024 -2.276,-2.275 v 0 c 0,-1.252 1.024,-2.276 2.276,-2.276 H 0 c 1.251,0 2.275,1.024 2.275,2.276 v 0 C 2.275,-1.024 1.251,0 0,0"
             style="fill:#e6e6e6;fill-opacity:1;fill-rule:nonzero;stroke:none"
             id="path325" />
        </g>
        <g
           id="g327"
           transform="translate(141.574,211.6822)">
          <path
             d="m 0,0 v 7.939 c 0,0.977 0.792,1.769 1.769,1.769 0.977,0 1.769,-0.792 1.769,-1.769 V 0 C 3.538,-0.977 2.746,-1.769 1.769,-1.769 0.792,-1.769 0,-0.977 0,0"
             style="fill:#e6e6e6;fill-opacity:1;fill-rule:nonzero;stroke:none"
             id="path329" />
        </g>
        <g
           id="g331"
           transform="translate(148.3188,218.5302)">
          <path
             d="m 0,0 c -1.034,-0.213 -1.818,-1.134 -1.818,-2.229 0,-1.049 0.639,-1.895 1.818,-2.229 z"
             style="fill:#018eca;fill-opacity:1;fill-rule:nonzero;stroke:none"
             id="path333" />
        </g>
      </g>
    </g>
    <text
       xml:space="preserve"
       transform="matrix(1,0,0,-1,72.6855,191.6035)"
       style="font-variant:normal;font-weight:bold;font-stretch:normal;font-size:10px;font-family:'Proxima Nova';-inkscape-font-specification:ProximaNova-Bold;writing-mode:lr-tb;fill:#646363;fill-opacity:1;fill-rule:nonzero;stroke:none"
       id="chart2-myanmar"><tspan
         x="0 8.5500002 13.68 19.110001 24.9 33.419998 38.849998 42.450001"
         y="0"
         sodipodi:role="line"
         id="tspan335">Myanmar </tspan></text>
    <text
       xml:space="preserve"
       transform="matrix(1,0,0,-1,117.6955,191.6035)"
       style="font-variant:normal;font-weight:500;font-stretch:normal;font-size:10px;font-family:'Proxima Nova Medium';-inkscape-font-specification:ProximaNova-Medium;writing-mode:lr-tb;fill:#018eca;fill-opacity:1;fill-rule:nonzero;stroke:none"
       id="text341"><tspan
         x="0 5.6500001 11.3"
         y="0"
         sodipodi:role="line"
         id="tspan339">330</tspan></text>
    <g
       id="g343">
      <g
         id="g345"
         clip-path="url(#clipPath349)">
        <g
           id="g351"
           transform="translate(197.5833,197.7001)">
          <path
             d="m 0,0 h -48.807 c -1.252,0 -2.276,-1.024 -2.276,-2.275 v 0 c 0,-1.252 1.024,-2.276 2.276,-2.276 H 0 c 1.251,0 2.275,1.024 2.275,2.276 v 0 C 2.275,-1.024 1.251,0 0,0"
             style="fill:#e6e6e6;fill-opacity:1;fill-rule:nonzero;stroke:none"
             id="path353" />
        </g>
        <g
           id="g355"
           transform="translate(141.574,190.8058)">
          <path
             d="m 0,0 v 7.939 c 0,0.977 0.792,1.769 1.769,1.769 0.977,0 1.769,-0.792 1.769,-1.769 V 0 C 3.538,-0.977 2.746,-1.769 1.769,-1.769 0.792,-1.769 0,-0.977 0,0"
             style="fill:#e6e6e6;fill-opacity:1;fill-rule:nonzero;stroke:none"
             id="path357" />
        </g>
        <g
           id="g359"
           transform="translate(147.6862,193.4291)">
          <path
             d="m 0,0 c -0.73,0.425 -1.186,1.178 -1.186,1.995 0,0.875 0.5,1.639 1.229,2.019 z"
             style="fill:#018eca;fill-opacity:1;fill-rule:nonzero;stroke:none"
             id="path361" />
        </g>
      </g>
    </g>
    <text
       xml:space="preserve"
       transform="matrix(1,0,0,-1,71.4253,171.4395)"
       style="font-variant:normal;font-weight:bold;font-stretch:normal;font-size:10px;font-family:'Proxima Nova';-inkscape-font-specification:ProximaNova-Bold;writing-mode:lr-tb;fill:#646363;fill-opacity:1;fill-rule:nonzero;stroke:none"
       id="chart2-colombia"><tspan
         x="0 6.8699999 12.61 15.14 20.879999 29.4 35.259998 37.790001 43.220001"
         y="0"
         sodipodi:role="line"
         id="tspan363">Colombia </tspan></text>
    <text
       xml:space="preserve"
       transform="matrix(1,0,0,-1,117.2053,171.4395)"
       style="font-variant:normal;font-weight:500;font-stretch:normal;font-size:10px;font-family:'Proxima Nova Medium';-inkscape-font-specification:ProximaNova-Medium;writing-mode:lr-tb;fill:#018eca;fill-opacity:1;fill-rule:nonzero;stroke:none"
       id="text369"><tspan
         x="0 5.9099998 11.79"
         y="0"
         sodipodi:role="line"
         id="tspan367">280</tspan></text>
    <g
       id="g371">
      <g
         id="g373"
         clip-path="url(#clipPath377)">
        <g
           id="g379"
           transform="translate(197.5833,176.0324)">
          <path
             d="m 0,0 h -48.807 c -1.252,0 -2.276,-1.024 -2.276,-2.275 0,-1.252 1.024,-2.276 2.276,-2.276 H 0 c 1.251,0 2.275,1.024 2.275,2.276 C 2.275,-1.024 1.251,0 0,0"
             style="fill:#e6e6e6;fill-opacity:1;fill-rule:nonzero;stroke:none"
             id="path381" />
        </g>
        <g
           id="g383"
           transform="translate(141.574,169.9295)">
          <path
             d="m 0,0 v 7.939 c 0,0.977 0.792,1.769 1.769,1.769 0.977,0 1.769,-0.792 1.769,-1.769 V 0 C 3.538,-0.977 2.746,-1.769 1.769,-1.769 0.792,-1.769 0,-0.977 0,0"
             style="fill:#e6e6e6;fill-opacity:1;fill-rule:nonzero;stroke:none"
             id="path385" />
        </g>
        <g
           id="g387"
           transform="translate(147.6862,171.7499)">
          <path
             d="m 0,0 c -0.73,0.425 -1.186,1.178 -1.186,1.995 0,0.875 0.5,1.639 1.229,2.019 z"
             style="fill:#018eca;fill-opacity:1;fill-rule:nonzero;stroke:none"
             id="path389" />
        </g>
      </g>
    </g>
    <g
       id="g391">
      <g
         id="g393"
         clip-path="url(#clipPath397)">
        <g
           id="g399"
           transform="translate(158.7448,412.294)">
          <path
             d="m 0,0 v 0 c -2.833,0 -5.13,2.297 -5.13,5.13 0,2.833 2.297,5.13 5.13,5.13 2.833,0 5.13,-2.297 5.13,-5.13 C 5.13,2.297 2.833,0 0,0"
             style="fill:#5ed9ee;fill-opacity:1;fill-rule:nonzero;stroke:none"
             id="path401" />
        </g>
        <g
           id="g403"
           transform="translate(221.799,412.294)">
          <path
             d="m 0,0 v 0 c -2.833,0 -5.13,2.297 -5.13,5.13 0,2.833 2.297,5.13 5.13,5.13 v 0 C 2.833,10.26 5.13,7.963 5.13,5.13 5.13,2.297 2.833,0 0,0"
             style="fill:#193256;fill-opacity:1;fill-rule:nonzero;stroke:none"
             id="path405" />
        </g>
        <g
           id="g407"
           transform="translate(205.4291,412.294)">
          <path
             d="m 0,0 v 0 c -2.833,0 -5.13,2.297 -5.13,5.13 0,2.833 2.297,5.13 5.13,5.13 v 0 C 2.833,10.26 5.13,7.963 5.13,5.13 5.13,2.297 2.833,0 0,0"
             style="fill:#06179e;fill-opacity:1;fill-rule:nonzero;stroke:none"
             id="path409" />
        </g>
        <g
           id="g411"
           transform="translate(191.4703,412.294)">
          <path
             d="m 0,0 v 0 c -2.833,0 -5.13,2.297 -5.13,5.13 0,2.833 2.297,5.13 5.13,5.13 v 0 C 2.833,10.26 5.13,7.963 5.13,5.13 5.13,2.297 2.833,0 0,0"
             style="fill:#0874e2;fill-opacity:1;fill-rule:nonzero;stroke:none"
             id="path413" />
        </g>
        <g
           id="g415"
           transform="translate(175.4099,412.294)">
          <path
             d="m 0,0 v 0 c -2.833,0 -5.13,2.297 -5.13,5.13 0,2.833 2.297,5.13 5.13,5.13 v 0 C 2.833,10.26 5.13,7.963 5.13,5.13 5.13,2.297 2.833,0 0,0"
             style="fill:#018eca;fill-opacity:1;fill-rule:nonzero;stroke:none"
             id="path417" />
        </g>
      </g>
    </g>
  </g>
</svg>
