<?xml version="1.0" encoding="UTF-8"?>
<!-- Created with Inkscape (http://www.inkscape.org/) -->
<svg id="svg2" width="217.97" height="349.14" version="1.1" viewBox="0 0 217.97 349.14" xmlns="http://www.w3.org/2000/svg">
 <defs id="defs6">
  <clipPath id="clipPath26">
   <path id="path24" d="M 0,429.957 H 261.341 V 0 H 0 Z"/>
  </clipPath>
  <clipPath id="clipPath50">
   <path id="path48" d="M 0,429.957 H 261.341 V 0 H 0 Z"/>
  </clipPath>
  <clipPath id="clipPath78">
   <path id="path76" d="M 0,429.957 H 261.341 V 0 H 0 Z"/>
  </clipPath>
  <clipPath id="clipPath106">
   <path id="path104" d="M 0,429.957 H 261.341 V 0 H 0 Z"/>
  </clipPath>
  <clipPath id="clipPath134">
   <path id="path132" d="M 0,429.957 H 261.341 V 0 H 0 Z"/>
  </clipPath>
  <clipPath id="clipPath162">
   <path id="path160" d="M 0,429.957 H 261.341 V 0 H 0 Z"/>
  </clipPath>
  <clipPath id="clipPath190">
   <path id="path188" d="M 0,429.957 H 261.341 V 0 H 0 Z"/>
  </clipPath>
  <clipPath id="clipPath218">
   <path id="path216" d="M 0,429.957 H 261.341 V 0 H 0 Z"/>
  </clipPath>
  <clipPath id="clipPath246">
   <path id="path244" d="M 0,429.957 H 261.341 V 0 H 0 Z"/>
  </clipPath>
  <clipPath id="clipPath274">
   <path id="path272" d="M 0,429.957 H 261.341 V 0 H 0 Z"/>
  </clipPath>
  <clipPath id="clipPath302">
   <path id="path300" d="M 0,429.957 H 261.341 V 0 H 0 Z"/>
  </clipPath>
  <clipPath id="clipPath330">
   <path id="path328" d="M 0,429.957 H 261.341 V 0 H 0 Z"/>
  </clipPath>
  <clipPath id="clipPath358">
   <path id="path356" d="M 0,429.957 H 261.341 V 0 H 0 Z"/>
  </clipPath>
 </defs>
 <g id="g10" transform="matrix(1.3333 0 0 -1.3333 -46.991 516.03)">
  <text id="text14" transform="matrix(1 0 0 -1 65.523 378.93)" fill="#646363" font-family="'Proxima Nova'" font-size="10px" font-weight="bold" xml:space="preserve"><tspan id="tspan12" x="0 7.1799998 13.61 16.17 23.040001 28.780001 34.57 40.419998 46.16" y="0">DR Congo </tspan></text>
  <text id="text18" transform="matrix(1 0 0 -1 114.24 378.93)" fill="#ef7d00" font-family="'Proxima Nova'" font-size="10px" style="font-variant-caps:normal;font-variant-east-asian:normal;font-variant-ligatures:normal;font-variant-numeric:normal" xml:space="preserve"><tspan id="tspan16" x="0 3.5899999 5.9699998 11.93" y="0" font-family="'Proxima Nova'" font-size="10px" style="font-variant-caps:normal;font-variant-east-asian:normal;font-variant-ligatures:normal;font-variant-numeric:normal">1.9m</tspan></text>
  <g id="g22" clip-path="url(#clipPath26)">
   <g id="g28" transform="translate(140.44 377.31)">
    <path id="path30" d="m0 0v7.939c0 .977.792 1.769 1.769 1.769s1.769-.792 1.769-1.769v-7.939c0-.977-.792-1.769-1.769-1.769s-1.769.792-1.769 1.769" fill="#e6e6e6"/>
   </g>
   <g id="g32" transform="translate(147.75 383.61)">
    <path id="path34" d="m0 0h48.589c1.266 0 2.292-1.026 2.292-2.292s-1.026-2.292-2.292-2.292h-48.589c-1.266 0-2.292 1.026-2.292 2.292s1.026 2.292 2.292 2.292" fill="#ef7d00"/>
   </g>
  </g>
  <text id="text38" transform="matrix(1 0 0 -1 90.35 358.4)" fill="#646363" font-family="'Proxima Nova'" font-size="10px" font-weight="bold" xml:space="preserve"><tspan id="tspan36" x="0 5.9299998 11.06 14.66 17.190001 22.620001" y="0">Syria </tspan></text>
  <text id="text42" transform="matrix(1 0 0 -1 115.53 358.4)" fill="#ef7d00" font-family="'Proxima Nova'" font-size="10px" style="font-variant-caps:normal;font-variant-east-asian:normal;font-variant-ligatures:normal;font-variant-numeric:normal" xml:space="preserve"><tspan id="tspan40" x="0 3.5899999 5.29 10.52" y="0">1.7m</tspan></text>
  <g id="g46" clip-path="url(#clipPath50)">
   <g id="g52" transform="translate(196.45 362.68)">
    <path id="path54" d="m0 0h-48.807c-1.252 0-2.276-1.024-2.276-2.276 0-1.251 1.024-2.275 2.276-2.275h48.807c1.251 0 2.275 1.024 2.275 2.275 0 1.252-1.024 2.276-2.275 2.276" fill="#e6e6e6"/>
   </g>
   <g id="g56" transform="translate(140.44 356.43)">
    <path id="path58" d="m0 0v7.939c0 .977.792 1.769 1.769 1.769s1.769-.792 1.769-1.769v-7.939c0-.977-.792-1.769-1.769-1.769s-1.769.792-1.769 1.769" fill="#e6e6e6"/>
   </g>
   <g id="g60" transform="translate(147.66 362.7)">
    <path id="path62" d="m0 0h43.63c1.266 0 2.292-1.026 2.292-2.292s-1.026-2.292-2.292-2.292h-43.63c-1.266 0-2.292 1.026-2.292 2.292s1.026 2.292 2.292 2.292" fill="#ef7d00"/>
   </g>
  </g>
  <text id="text66" transform="matrix(1 0 0 -1 57.436 336.24)" fill="#646363" font-family="'Proxima Nova'" font-size="10px" font-weight="bold" xml:space="preserve"><tspan id="tspan64" x="0 6.6399999 9.9099998 15.76 21.559999 26.99 32.779999 35.310001 40.080002 43.459999 48.889999 54.68" y="0">Afghanistan </tspan></text>
  <text id="text70" transform="matrix(1 0 0 -1 114.68 336.24)" fill="#ef7d00" font-family="'Proxima Nova'" font-size="10px" style="font-variant-caps:normal;font-variant-east-asian:normal;font-variant-ligatures:normal;font-variant-numeric:normal" xml:space="preserve"><tspan id="tspan68" x="0 3.5899999 5.9699998 11.92" y="0">1.5m</tspan></text>
  <g id="g74" clip-path="url(#clipPath78)">
   <g id="g80" transform="translate(196.45 341.66)">
    <path id="path82" d="m0 0h-48.807c-1.252 0-2.276-1.024-2.276-2.275 0-1.252 1.024-2.276 2.276-2.276h48.807c1.251 0 2.275 1.024 2.275 2.276 0 1.251-1.024 2.275-2.275 2.275" fill="#e6e6e6"/>
   </g>
   <g id="g84" transform="translate(140.44 335.56)">
    <path id="path86" d="m0 0v7.939c0 .977.792 1.769 1.769 1.769s1.769-.792 1.769-1.769v-7.939c0-.977-.792-1.769-1.769-1.769s-1.769.792-1.769 1.769" fill="#e6e6e6"/>
   </g>
   <g id="g88" transform="translate(147.75 341.66)">
    <path id="path90" d="m0 0h38.212c1.267 0 2.292-1.026 2.292-2.292s-1.025-2.292-2.292-2.292h-38.212c-1.266 0-2.292 1.026-2.292 2.292s1.026 2.292 2.292 2.292" fill="#ef7d00"/>
   </g>
  </g>
  <text id="text94" transform="matrix(1 0 0 -1 81.373 315.73)" fill="#646363" font-family="'Proxima Nova'" font-size="10px" font-weight="bold" xml:space="preserve"><tspan id="tspan92" x="0 5.21 10.74 19.26 24.790001 30.58" y="0">Yemen </tspan></text>
  <text id="text98" transform="matrix(1 0 0 -1 114.51 315.73)" fill="#ef7d00" font-family="'Proxima Nova'" font-size="10px" style="font-variant-caps:normal;font-variant-east-asian:normal;font-variant-ligatures:normal;font-variant-numeric:normal" xml:space="preserve"><tspan id="tspan96" x="0 3.5899999 5.9699998 11.66" y="0">1.4m</tspan></text>
  <g id="g102" clip-path="url(#clipPath106)">
   <g id="g108" transform="translate(196.45 321.58)">
    <path id="path110" d="m0 0h-48.807c-1.252 0-2.276-1.024-2.276-2.275 0-1.252 1.024-2.276 2.276-2.276h48.807c1.251 0 2.275 1.024 2.275 2.276 0 1.251-1.024 2.275-2.275 2.275" fill="#e6e6e6"/>
   </g>
   <g id="g112" transform="translate(140.44 314.68)">
    <path id="path114" d="m0 0v7.939c0 .978.792 1.769 1.769 1.769s1.769-.791 1.769-1.769v-7.939c0-.977-.792-1.769-1.769-1.769s-1.769.792-1.769 1.769" fill="#e6e6e6"/>
   </g>
   <g id="g116" transform="translate(147.75 321.59)">
    <path id="path118" d="m0 0h34.257c1.266 0 2.292-1.026 2.292-2.292s-1.026-2.292-2.292-2.292h-34.257c-1.266 0-2.292 1.026-2.292 2.292s1.026 2.292 2.292 2.292" fill="#ef7d00"/>
   </g>
  </g>
  <text id="text122" transform="matrix(1 0 0 -1 74.643 295.26)" fill="#646363" font-family="'Proxima Nova'" font-size="10px" font-weight="bold" xml:space="preserve"><tspan id="tspan120" x="0 5.8299999 9.21 15.01 17.540001 23.280001 29.129999 31.66 37.09" y="0">Ethiopia </tspan></text>
  <text id="text126" transform="matrix(1 0 0 -1 114.29 295.26)" fill="#ef7d00" font-family="'Proxima Nova'" font-size="10px" style="font-variant-caps:normal;font-variant-east-asian:normal;font-variant-ligatures:normal;font-variant-numeric:normal" xml:space="preserve"><tspan id="tspan124" x="0 3.5899999 5.9699998 11.88" y="0">1.2m</tspan></text>
  <g id="g130" clip-path="url(#clipPath134)">
   <g id="g136" transform="translate(196.45 300.7)">
    <path id="path138" d="m0 0h-48.807c-1.252 0-2.276-1.024-2.276-2.275 0-1.252 1.024-2.276 2.276-2.276h48.807c1.251 0 2.275 1.024 2.275 2.276 0 1.251-1.024 2.275-2.275 2.275" fill="#e6e6e6"/>
   </g>
   <g id="g140" transform="translate(140.44 293.81)">
    <path id="path142" d="m0 0v7.939c0 .978.792 1.769 1.769 1.769s1.769-.791 1.769-1.769v-7.939c0-.977-.792-1.769-1.769-1.769s-1.769.792-1.769 1.769" fill="#e6e6e6"/>
   </g>
   <g id="g144" transform="translate(147.75 300.72)">
    <path id="path146" d="m0 0h28.553c1.265 0 2.292-1.026 2.292-2.292s-1.027-2.292-2.292-2.292h-28.553c-1.266 0-2.292 1.026-2.292 2.292s1.026 2.292 2.292 2.292" fill="#ef7d00"/>
   </g>
  </g>
  <text id="text150" transform="matrix(1 0 0 -1 82.053 274.7)" fill="#646363" font-family="'Proxima Nova'" font-size="10px" font-weight="bold" xml:space="preserve"><tspan id="tspan148" x="0 7.29 9.8199997 15.67 21.200001 24.799999 27.33 32.759998" y="0">Nigeria </tspan></text>
  <text id="text154" transform="matrix(1 0 0 -1 117.37 274.7)" fill="#ef7d00" font-family="'Proxima Nova'" font-size="10px" style="font-variant-caps:normal;font-variant-east-asian:normal;font-variant-ligatures:normal;font-variant-numeric:normal" xml:space="preserve"><tspan id="tspan152" x="0 3.5899999 5.1300001 8.7200003" y="0">1.1m</tspan></text>
  <g id="g158" clip-path="url(#clipPath162)">
   <g id="g164" transform="translate(196.37 279.29)">
    <path id="path166" d="m0 0h-48.807c-1.252 0-2.276-1.023-2.276-2.275 0-1.251 1.024-2.276 2.276-2.276h48.807c1.251 0 2.275 1.025 2.275 2.276 0 1.252-1.024 2.275-2.275 2.275" fill="#e6e6e6"/>
   </g>
   <g id="g168" transform="translate(140.36 273.05)">
    <path id="path170" d="m0 0v7.939c0 .978.792 1.77 1.77 1.77.976 0 1.768-.792 1.768-1.77v-7.939c0-.977-.792-1.769-1.768-1.769-.978 0-1.77.792-1.77 1.769" fill="#e6e6e6"/>
   </g>
   <g id="g172" transform="translate(147.67 279.31)">
    <path id="path174" d="m0 0h26.546c1.266 0 2.292-1.026 2.292-2.292s-1.026-2.292-2.292-2.292h-26.546c-1.266 0-2.292 1.026-2.292 2.292s1.026 2.292 2.292 2.292" fill="#ef7d00"/>
   </g>
  </g>
  <text id="text178" transform="matrix(1 0 0 -1 78.713 252.98)" fill="#646363" font-family="'Proxima Nova'" font-size="10px" font-weight="bold" xml:space="preserve"><tspan id="tspan176" x="0 6 11.74 20.26 25.690001 28.219999 30.75 36.18" y="0">Somalia </tspan></text>
  <text id="text182" transform="matrix(1 0 0 -1 117.45 252.98)" fill="#ef7d00" font-family="'Proxima Nova'" font-size="10px" style="font-variant-caps:normal;font-variant-east-asian:normal;font-variant-ligatures:normal;font-variant-numeric:normal" xml:space="preserve"><tspan id="tspan180" x="0 3.5899999 5.1300001 8.7200003" y="0">1.1m</tspan></text>
  <g id="g186" clip-path="url(#clipPath190)">
   <g id="g192" transform="translate(196.45 258.53)">
    <path id="path194" d="m0 0h-48.807c-1.252 0-2.276-1.023-2.276-2.275 0-1.251 1.024-2.276 2.276-2.276h48.807c1.251 0 2.275 1.025 2.275 2.276 0 1.252-1.024 2.275-2.275 2.275" fill="#e6e6e6"/>
   </g>
   <g id="g196" transform="translate(140.44 252.29)">
    <path id="path198" d="m0 0v7.938c0 .978.792 1.77 1.769 1.77s1.769-.792 1.769-1.77v-7.938c0-.978-.792-1.77-1.769-1.77s-1.769.792-1.769 1.77" fill="#e6e6e6"/>
   </g>
   <g id="g200" transform="translate(147.45 258.59)">
    <path id="path202" d="m0 0h25.6c1.266 0 2.292-1.026 2.292-2.292s-1.026-2.292-2.292-2.292h-25.6c-1.266 0-2.292 1.026-2.292 2.292s1.026 2.292 2.292 2.292" fill="#ef7d00"/>
   </g>
  </g>
  <text id="text206" transform="matrix(1 0 0 -1 76.68 232.05)" fill="#646363" font-family="'Proxima Nova'" font-size="10px" font-weight="bold" xml:space="preserve"><tspan id="tspan204" x="0 6.8699999 12.61 15.14 20.879999 29.4 35.259998 37.790001 43.220001" y="0">Colombia </tspan></text>
  <text id="text210" transform="matrix(1 0 0 -1 122.46 232.05)" fill="#ef7d00" font-family="'Proxima Nova'" font-size="10px" style="font-variant-caps:normal;font-variant-east-asian:normal;font-variant-ligatures:normal;font-variant-numeric:normal" xml:space="preserve"><tspan id="tspan208" x="0 3.5899999" y="0">1m</tspan></text>
  <g id="g214" clip-path="url(#clipPath218)">
   <g id="g220" transform="translate(196.45 237.42)">
    <path id="path222" d="m0 0h-48.807c-1.252 0-2.276-1.023-2.276-2.275 0-1.251 1.024-2.276 2.276-2.276h48.807c1.251 0 2.275 1.025 2.275 2.276 0 1.252-1.024 2.275-2.275 2.275" fill="#e6e6e6"/>
   </g>
   <g id="g224" transform="translate(140.44 231.32)">
    <path id="path226" d="m0 0v7.938c0 .978.792 1.77 1.769 1.77s1.769-.792 1.769-1.77v-7.938c0-.978-.792-1.77-1.769-1.77s-1.769.792-1.769 1.77" fill="#e6e6e6"/>
   </g>
   <g id="g228" transform="translate(147.75 237.52)">
    <path id="path230" d="m0 0h25.17c1.266 0 2.292-1.026 2.292-2.292s-1.026-2.292-2.292-2.292h-25.17c-1.266 0-2.292 1.026-2.292 2.292s1.026 2.292 2.292 2.292" fill="#ef7d00"/>
   </g>
  </g>
  <text id="text234" transform="matrix(1 0 0 -1 91.122 211.13)" fill="#646363" font-family="'Proxima Nova'" font-size="10px" font-weight="bold" xml:space="preserve"><tspan id="tspan232" x="0 6 11.79 17.65 23.08 28.870001" y="0">Sudan </tspan></text>
  <text id="text238" transform="matrix(1 0 0 -1 122.55 211.13)" fill="#ef7d00" font-family="'Proxima Nova'" font-size="10px" style="font-variant-caps:normal;font-variant-east-asian:normal;font-variant-ligatures:normal;font-variant-numeric:normal" xml:space="preserve"><tspan id="tspan236" x="0 3.5899999" y="0">1m</tspan></text>
  <g id="g242" clip-path="url(#clipPath246)">
   <g id="g248" transform="translate(196.45 217.33)">
    <path id="path250" d="m0 0h-48.807c-1.252 0-2.276-1.023-2.276-2.275 0-1.251 1.024-2.276 2.276-2.276h48.807c1.251 0 2.275 1.025 2.275 2.276 0 1.252-1.024 2.275-2.275 2.275" fill="#e6e6e6"/>
   </g>
   <g id="g252" transform="translate(140.44 210.44)">
    <path id="path254" d="m0 0v7.939c0 .978.792 1.77 1.769 1.77s1.769-.792 1.769-1.77v-7.939c0-.977-.792-1.769-1.769-1.769s-1.769.792-1.769 1.769" fill="#e6e6e6"/>
   </g>
   <g id="g256" transform="translate(147.75 217.35)">
    <path id="path258" d="m0 0h24.597c1.266 0 2.292-1.026 2.292-2.292s-1.026-2.292-2.292-2.292h-24.597c-1.266 0-2.292 1.026-2.292 2.292s1.026 2.292 2.292 2.292" fill="#ef7d00"/>
   </g>
  </g>
  <text id="text262" transform="matrix(1 0 0 -1 35.583 190.85)" fill="#646363" font-family="'Proxima Nova'" font-size="10px" font-weight="bold" xml:space="preserve"><tspan id="tspan260" x="0 6 11.74 17.530001 20.91 26.709999 29.27 35.27 41.060001 46.919998 52.349998 58.139999" y="0">South Sudan </tspan></text>
  <text id="text266" transform="matrix(1 0 0 -1 96.283 190.85)" fill="#ef7d00" font-family="'Proxima Nova'" font-size="10px" style="font-variant-caps:normal;font-variant-east-asian:normal;font-variant-ligatures:normal;font-variant-numeric:normal" xml:space="preserve"><tspan id="tspan264" x="0 5.6900001 11.38 17.26 19.639999 25.780001 31.92" y="0">448,000</tspan></text>
  <g id="g270" clip-path="url(#clipPath274)">
   <g id="g276" transform="translate(196.45 196.46)">
    <path id="path278" d="m0 0h-48.807c-1.252 0-2.276-1.024-2.276-2.275 0-1.252 1.024-2.276 2.276-2.276h48.807c1.251 0 2.275 1.024 2.275 2.276 0 1.251-1.024 2.275-2.275 2.275" fill="#e6e6e6"/>
   </g>
   <g id="g280" transform="translate(140.44 189.56)">
    <path id="path282" d="m0 0v7.939c0 .977.792 1.769 1.769 1.769s1.769-.792 1.769-1.769v-7.939c0-.978-.792-1.77-1.769-1.77s-1.769.792-1.769 1.77" fill="#e6e6e6"/>
   </g>
   <g id="g284" transform="translate(147.75 196.47)">
    <path id="path286" d="m0 0h8.258c1.266 0 2.292-1.026 2.292-2.292s-1.026-2.292-2.292-2.292h-8.258c-1.266 0-2.292 1.026-2.292 2.292s1.026 2.292 2.292 2.292" fill="#ef7d00"/>
   </g>
  </g>
  <text id="text290" transform="matrix(1 0 0 -1 77.337 169.36)" fill="#646363" font-family="'Proxima Nova'" font-size="10px" font-weight="bold" xml:space="preserve"><tspan id="tspan288" x="0 2.74 6.3400002 11.77 17.620001" y="0">Iraq </tspan></text>
  <text id="text294" transform="matrix(1 0 0 -1 97.517 169.36)" fill="#ef7d00" font-family="'Proxima Nova'" font-size="10px" style="font-variant-caps:normal;font-variant-east-asian:normal;font-variant-ligatures:normal;font-variant-numeric:normal" xml:space="preserve"><tspan id="tspan292" x="0 5.6500001 11.61 17.26 19.639999 25.780001 31.92" y="0">363,000</tspan></text>
  <g id="g298" clip-path="url(#clipPath302)">
   <g id="g304" transform="translate(196.45 174.79)">
    <path id="path306" d="m0 0h-48.807c-1.252 0-2.276-1.023-2.276-2.275 0-1.251 1.024-2.276 2.276-2.276h48.807c1.251 0 2.275 1.025 2.275 2.276 0 1.252-1.024 2.275-2.275 2.275" fill="#e6e6e6"/>
   </g>
   <g id="g308" transform="translate(140.44 168.69)">
    <path id="path310" d="m0 0v7.938c0 .978.792 1.77 1.769 1.77s1.769-.792 1.769-1.77v-7.938c0-.978-.792-1.77-1.769-1.77s-1.769.792-1.769 1.77" fill="#e6e6e6"/>
   </g>
   <g id="g312" transform="translate(147.75 174.78)">
    <path id="path314" d="m0 0h5.822c1.265 0 2.291-1.025 2.291-2.292 0-1.266-1.026-2.292-2.291-2.292h-5.822c-1.266 0-2.292 1.026-2.292 2.292 0 1.267 1.026 2.292 2.292 2.292" fill="#ef7d00"/>
   </g>
  </g>
  <text id="text318" transform="matrix(1 0 0 -1 34.583 149.39)" fill="#646363" font-family="'Proxima Nova'" font-size="10px" font-weight="bold" xml:space="preserve"><tspan id="tspan316" x="0 8.5500002 14.29 19.08 24.51 33.029999 38.889999 41.419998 47.27 53.060001 58.59" y="0">Mozambique </tspan></text>
  <text id="text322" transform="matrix(1 0 0 -1 95.733 149.39)" fill="#ef7d00" font-family="'Proxima Nova'" font-size="10px" style="font-variant-caps:normal;font-variant-east-asian:normal;font-variant-ligatures:normal;font-variant-numeric:normal" xml:space="preserve"><tspan id="tspan320" x="0 5.9099998 11.86 17.809999 20.190001 26.33 32.470001" y="0">255,000</tspan></text>
  <g id="g326" clip-path="url(#clipPath330)">
   <g id="g332" transform="translate(196.45 154.7)">
    <path id="path334" d="m0 0h-48.807c-1.252 0-2.276-1.023-2.276-2.275s1.024-2.276 2.276-2.276h48.807c1.251 0 2.275 1.024 2.275 2.276s-1.024 2.275-2.275 2.275" fill="#e6e6e6"/>
   </g>
   <g id="g336" transform="translate(140.44 147.81)">
    <path id="path338" d="m0 0v7.939c0 .977.792 1.769 1.769 1.769s1.769-.792 1.769-1.769v-7.939c0-.977-.792-1.769-1.769-1.769s-1.769.792-1.769 1.769" fill="#e6e6e6"/>
   </g>
   <g id="g340" transform="translate(147.6 154.72)">
    <path id="path342" d="m0 0h2.726c1.266 0 2.292-1.026 2.292-2.292s-1.026-2.292-2.292-2.292h-2.726c-1.266 0-2.292 1.026-2.292 2.292s1.026 2.292 2.292 2.292" fill="#ef7d00"/>
   </g>
  </g>
  <text id="text346" transform="matrix(1 0 0 -1 53.373 127.96)" fill="#646363" font-family="'Proxima Nova'" font-size="10px" font-weight="bold" xml:space="preserve"><tspan id="tspan344" x="0 8.5500002 13.68 19.110001 24.9 33.419998 38.849998 42.450001" y="0">Myanmar </tspan></text>
  <text id="text350" transform="matrix(1 0 0 -1 98.383 127.96)" fill="#ef7d00" font-family="'Proxima Nova'" font-size="10px" style="font-variant-caps:normal;font-variant-east-asian:normal;font-variant-ligatures:normal;font-variant-numeric:normal" xml:space="preserve"><tspan id="tspan348" x="0 3.5899999 9.2799997 15.16 17.540001 23.68 29.82" y="0">148,000</tspan></text>
  <g id="g354" clip-path="url(#clipPath358)">
   <g id="g360" transform="translate(196.45 133.83)">
    <path id="path362" d="m0 0h-48.807c-1.252 0-2.276-1.024-2.276-2.275 0-1.252 1.024-2.276 2.276-2.276h48.807c1.251 0 2.275 1.024 2.275 2.276 0 1.251-1.024 2.275-2.275 2.275" fill="#e6e6e6"/>
   </g>
   <g id="g364" transform="translate(140.44 126.93)">
    <path id="path366" d="m0 0v7.938c0 .978.792 1.77 1.769 1.77s1.769-.792 1.769-1.77v-7.938c0-.978-.792-1.77-1.769-1.77s-1.769.792-1.769 1.77" fill="#e6e6e6"/>
   </g>
   <g id="g368" transform="translate(147.42 133.84)">
    <path id="path370" d="m0 0c1.172 0 2.122-.95 2.122-2.122v-.341c0-1.172-.95-2.121-2.122-2.121-1.171 0-2.121.949-2.121 2.121v.341c0 1.172.95 2.122 2.121 2.122" fill="#ef7d00"/>
   </g>
  </g>
 </g>
</svg>
