<?xml version="1.0" encoding="UTF-8"?>
<!-- Created with Inkscape (http://www.inkscape.org/) -->
<svg id="svg1113" width="214.34" height="349.33" version="1.1" viewBox="0 0 214.34 349.33" xmlns="http://www.w3.org/2000/svg">
 <defs id="defs1117">
  <clipPath id="clipPath1139">
   <path id="path1137" d="M 0,429.957 H 261.341 V 0 H 0 Z"/>
  </clipPath>
  <clipPath id="clipPath1165">
   <path id="path1163" d="M 0,429.957 H 261.341 V 0 H 0 Z"/>
  </clipPath>
  <clipPath id="clipPath1189">
   <path id="path1187" d="M 0,429.957 H 261.341 V 0 H 0 Z"/>
  </clipPath>
  <clipPath id="clipPath1213">
   <path id="path1211" d="M 0,429.957 H 261.341 V 0 H 0 Z"/>
  </clipPath>
  <clipPath id="clipPath1241">
   <path id="path1239" d="M 0,429.957 H 261.341 V 0 H 0 Z"/>
  </clipPath>
  <clipPath id="clipPath1269">
   <path id="path1267" d="M 0,429.957 H 261.341 V 0 H 0 Z"/>
  </clipPath>
  <clipPath id="clipPath1297">
   <path id="path1295" d="M 0,429.957 H 261.341 V 0 H 0 Z"/>
  </clipPath>
  <clipPath id="clipPath1325">
   <path id="path1323" d="M 0,429.957 H 261.341 V 0 H 0 Z"/>
  </clipPath>
  <clipPath id="clipPath1353">
   <path id="path1351" d="M 0,429.957 H 261.341 V 0 H 0 Z"/>
  </clipPath>
  <clipPath id="clipPath1381">
   <path id="path1379" d="M 0,429.957 H 261.341 V 0 H 0 Z"/>
  </clipPath>
  <clipPath id="clipPath1409">
   <path id="path1407" d="M 0,429.957 H 261.341 V 0 H 0 Z"/>
  </clipPath>
  <clipPath id="clipPath1437">
   <path id="path1435" d="M 0,429.957 H 261.341 V 0 H 0 Z"/>
  </clipPath>
  <clipPath id="clipPath1465">
   <path id="path1463" d="M 0,429.957 H 261.341 V 0 H 0 Z"/>
  </clipPath>
 </defs>
 <g id="g1121" transform="matrix(1.3333 0 0 -1.3333 -52.141 518.09)">
  <text id="text1125" transform="matrix(1 0 0 -1 93.396 150.33)" fill="#646363" font-family="'Proxima Nova'" font-size="10px" font-weight="bold" xml:space="preserve"><tspan id="tspan1123" x="0 6 11.74 20.26 25.690001 28.219999 30.75 36.18" y="0">Somalia </tspan></text>
  <text id="text1131" transform="matrix(1 0 0 -1 132.14 150.33)" fill="#ef7d00" font-family="'Proxima Nova Medium'" font-size="10px" font-weight="500" xml:space="preserve"><tspan id="tspan1127" x="0" y="0">-</tspan><tspan id="tspan1129" x="3" y="0"> </tspan></text>
  <g id="g1133">
   <g id="g1135" clip-path="url(#clipPath1139)">
    <g id="g1141" transform="translate(197.58 156.11)">
     <path id="path1143" d="m0 0h-48.807c-1.252 0-2.276-1.024-2.276-2.275 0-1.252 1.024-2.276 2.276-2.276h48.807c1.251 0 2.275 1.024 2.275 2.276 0 1.251-1.024 2.275-2.275 2.275" fill="#e6e6e6"/>
    </g>
    <g id="g1145" transform="translate(141.57 149.22)">
     <path id="path1147" d="m0 0v7.939c0 .977.792 1.769 1.769 1.769s1.769-.792 1.769-1.769v-7.939c0-.977-.792-1.769-1.769-1.769s-1.769.792-1.769 1.769" fill="#e6e6e6"/>
    </g>
   </g>
  </g>
  <text id="text1151" transform="matrix(1 0 0 -1 106.96 129.23)" fill="#646363" font-family="'Proxima Nova'" font-size="10px" font-weight="bold" xml:space="preserve"><tspan id="tspan1149" x="0 5.9299998 11.06 14.66 17.190001 22.620001" y="0">Syria </tspan></text>
  <text id="text1157" transform="matrix(1 0 0 -1 132.14 129.23)" fill="#ef7d00" font-family="'Proxima Nova Medium'" font-size="10px" font-weight="500" xml:space="preserve"><tspan id="tspan1153" x="0" y="0">-</tspan><tspan id="tspan1155" x="3" y="0"> </tspan></text>
  <g id="g1159">
   <g id="g1161" clip-path="url(#clipPath1165)">
    <g id="g1167" transform="translate(197.58 135.24)">
     <path id="path1169" d="m0 0h-48.807c-1.252 0-2.276-1.024-2.276-2.275 0-1.252 1.024-2.276 2.276-2.276h48.807c1.251 0 2.275 1.024 2.275 2.276 0 1.251-1.024 2.275-2.275 2.275" fill="#e6e6e6"/>
    </g>
    <g id="g1171" transform="translate(141.57 128.34)">
     <path id="path1173" d="m0 0v7.939c0 .977.792 1.769 1.769 1.769s1.769-.792 1.769-1.769v-7.939c0-.977-.792-1.769-1.769-1.769s-1.769.792-1.769 1.769" fill="#e6e6e6"/>
    </g>
   </g>
  </g>
  <text id="text1177" transform="matrix(1 0 0 -1 41.936 379.33)" fill="#646363" font-family="'Proxima Nova'" font-size="10px" font-weight="bold" xml:space="preserve"><tspan id="tspan1175" x="0 6.6399999 9.9099998 15.76 21.559999 26.99 32.779999 35.310001 40.080002 43.459999 48.889999 54.68" y="0">Afghanistan </tspan></text>
  <text id="text1181" transform="matrix(1 0 0 -1 99.176 379.33)" fill="#018eca" font-family="'Proxima Nova'" font-size="10px" style="font-variant-caps:normal;font-variant-east-asian:normal;font-variant-ligatures:normal;font-variant-numeric:normal" xml:space="preserve"><tspan id="tspan1179" x="0 5.6900001 11.57 15.16 17.540001 23.68 29.82 35.959999" y="0">481,000 </tspan></text>
  <g id="g1183">
   <g id="g1185" clip-path="url(#clipPath1189)">
    <g id="g1191" transform="translate(141.57 378.86)">
     <path id="path1193" d="m0 0v7.939c0 .977.792 1.769 1.769 1.769s1.769-.792 1.769-1.769v-7.939c0-.977-.792-1.769-1.769-1.769s-1.769.792-1.769 1.769" fill="#e6e6e6"/>
    </g>
    <g id="g1195" transform="translate(148.89 385.16)">
     <path id="path1197" d="m0 0h48.589c1.266 0 2.292-1.026 2.292-2.292s-1.026-2.292-2.292-2.292h-48.589c-1.266 0-2.292 1.026-2.292 2.292s1.026 2.292 2.292 2.292" fill="#018eca"/>
    </g>
   </g>
  </g>
  <text id="text1201" transform="matrix(1 0 0 -1 59.256 358.74)" fill="#646363" font-family="'Proxima Nova'" font-size="10px" font-weight="bold" xml:space="preserve"><tspan id="tspan1199" x="0 5.8299999 9.21 15.01 17.540001 23.280001 29.129999 31.66 37.09" y="0">Ethiopia </tspan></text>
  <text id="text1205" transform="matrix(1 0 0 -1 98.906 358.74)" fill="#018eca" font-family="'Proxima Nova'" font-size="10px" style="font-variant-caps:normal;font-variant-east-asian:normal;font-variant-ligatures:normal;font-variant-numeric:normal" xml:space="preserve"><tspan id="tspan1203" x="0 3.5899999 9.4700003 15.43 17.809999 23.950001 30.09" y="0">186,000</tspan></text>
  <g id="g1207">
   <g id="g1209" clip-path="url(#clipPath1213)">
    <g id="g1215" transform="translate(197.58 364.1)">
     <path id="path1217" d="m0 0h-48.807c-1.252 0-2.276-1.024-2.276-2.275 0-1.252 1.024-2.276 2.276-2.276h48.807c1.251 0 2.275 1.024 2.275 2.276 0 1.251-1.024 2.275-2.275 2.275" fill="#e6e6e6"/>
    </g>
    <g id="g1219" transform="translate(141.57 357.85)">
     <path id="path1221" d="m0 0v7.939c0 .977.792 1.769 1.769 1.769s1.769-.792 1.769-1.769v-7.939c0-.977-.792-1.769-1.769-1.769s-1.769.792-1.769 1.769" fill="#e6e6e6"/>
    </g>
    <g id="g1223" transform="translate(148.9 364.12)">
     <path id="path1225" d="m0 0h16.017c1.273 0 2.304-1.031 2.304-2.304 0-1.272-1.031-2.303-2.304-2.303h-16.017c-1.272 0-2.304 1.031-2.304 2.303 0 1.273 1.032 2.304 2.304 2.304" fill="#018eca"/>
    </g>
   </g>
  </g>
  <text id="text1229" transform="matrix(1 0 0 -1 38.906 338.49)" fill="#646363" font-family="'Proxima Nova'" font-size="10px" font-weight="bold" xml:space="preserve"><tspan id="tspan1227" x="0 6 11.74 17.530001 20.91 26.709999 29.27 35.27 41.060001 46.919998 52.349998 58.139999" y="0">South Sudan </tspan></text>
  <text id="text1233" transform="matrix(1 0 0 -1 99.606 338.49)" fill="#018eca" font-family="'Proxima Nova'" font-size="10px" style="font-variant-caps:normal;font-variant-east-asian:normal;font-variant-ligatures:normal;font-variant-numeric:normal" xml:space="preserve"><tspan id="tspan1231" x="0 3.5899999 8.8199997 14.73 17.110001 23.25 29.389999" y="0">172,000</tspan></text>
  <g id="g1235">
   <g id="g1237" clip-path="url(#clipPath1241)">
    <g id="g1243" transform="translate(197.58 343.08)">
     <path id="path1245" d="m0 0h-48.807c-1.252 0-2.276-1.024-2.276-2.275 0-1.252 1.024-2.276 2.276-2.276h48.807c1.251 0 2.275 1.024 2.275 2.276 0 1.251-1.024 2.275-2.275 2.275" fill="#e6e6e6"/>
    </g>
    <g id="g1247" transform="translate(141.57 336.98)">
     <path id="path1249" d="m0 0v7.939c0 .977.792 1.769 1.769 1.769s1.769-.792 1.769-1.769v-7.939c0-.977-.792-1.769-1.769-1.769s-1.769.792-1.769 1.769" fill="#e6e6e6"/>
    </g>
    <g id="g1251" transform="translate(148.8 343.11)">
     <path id="path1253" d="m0 0h14.453c1.272 0 2.303-1.031 2.303-2.304 0-1.272-1.031-2.303-2.303-2.303h-14.453c-1.272 0-2.304 1.031-2.304 2.303 0 1.273 1.032 2.304 2.304 2.304" fill="#018eca"/>
    </g>
   </g>
  </g>
  <text id="text1257" transform="matrix(1 0 0 -1 54.526 317.21)" fill="#646363" font-family="'Proxima Nova'" font-size="10px" font-weight="bold" xml:space="preserve"><tspan id="tspan1255" x="0 7.1799998 13.61 16.17 23.040001 28.780001 34.57 40.419998 46.16" y="0">DR Congo </tspan></text>
  <text id="text1261" transform="matrix(1 0 0 -1 103.25 317.21)" fill="#018eca" font-family="'Proxima Nova'" font-size="10px" style="font-variant-caps:normal;font-variant-east-asian:normal;font-variant-ligatures:normal;font-variant-numeric:normal" xml:space="preserve"><tspan id="tspan1259" x="0 5.23 11.091 13.471 19.611 25.750999" y="0">70,000</tspan></text>
  <g id="g1263">
   <g id="g1265" clip-path="url(#clipPath1269)">
    <g id="g1271" transform="translate(197.58 322.99)">
     <path id="path1273" d="m0 0h-48.807c-1.252 0-2.276-1.024-2.276-2.275 0-1.252 1.024-2.276 2.276-2.276h48.807c1.251 0 2.275 1.024 2.275 2.276 0 1.251-1.024 2.275-2.275 2.275" fill="#e6e6e6"/>
    </g>
    <g id="g1275" transform="translate(141.57 316.1)">
     <path id="path1277" d="m0 0v7.939c0 .977.792 1.769 1.769 1.769s1.769-.792 1.769-1.769v-7.939c0-.977-.792-1.769-1.769-1.769s-1.769.792-1.769 1.769" fill="#e6e6e6"/>
    </g>
    <g id="g1279" transform="translate(148.9 323.02)">
     <path id="path1281" d="m0 0h3.118c1.272 0 2.304-1.031 2.304-2.304 0-1.272-1.032-2.303-2.304-2.303h-3.118c-1.272 0-2.304 1.031-2.304 2.303 0 1.273 1.032 2.304 2.304 2.304" fill="#018eca"/>
    </g>
   </g>
  </g>
  <text id="text1285" transform="matrix(1 0 0 -1 41.616 296.04)" fill="#646363" font-family="'Proxima Nova'" font-size="10px" font-weight="bold" xml:space="preserve"><tspan id="tspan1283" x="0 8.5500002 14.29 19.08 24.51 33.029999 38.889999 41.419998 47.27 53.060001 58.59" y="0">Mozambique </tspan></text>
  <text id="text1289" transform="matrix(1 0 0 -1 102.77 296.04)" fill="#018eca" font-family="'Proxima Nova'" font-size="10px" style="font-variant-caps:normal;font-variant-east-asian:normal;font-variant-ligatures:normal;font-variant-numeric:normal" xml:space="preserve"><tspan id="tspan1287" x="0 5.6900001 11.57 13.95 20.09 26.23 32.369999" y="0">48,000 </tspan></text>
  <g id="g1291">
   <g id="g1293" clip-path="url(#clipPath1297)">
    <g id="g1299" transform="translate(197.58 302.08)">
     <path id="path1301" d="m0 0h-48.807c-1.252 0-2.276-1.024-2.276-2.275 0-1.252 1.024-2.276 2.276-2.276h48.807c1.251 0 2.275 1.024 2.275 2.276 0 1.251-1.024 2.275-2.275 2.275" fill="#e6e6e6"/>
    </g>
    <g id="g1303" transform="translate(141.57 295.19)">
     <path id="path1305" d="m0 0v7.939c0 .977.792 1.769 1.769 1.769s1.769-.792 1.769-1.769v-7.939c0-.977-.792-1.769-1.769-1.769s-1.769.792-1.769 1.769" fill="#e6e6e6"/>
    </g>
    <g id="g1307" transform="translate(148.9 302.11)">
     <path id="path1309" d="m0 0h.678c1.273 0 2.304-1.031 2.304-2.304 0-1.272-1.031-2.303-2.304-2.303h-.678c-1.272 0-2.304 1.031-2.304 2.303 0 1.273 1.032 2.304 2.304 2.304" fill="#018eca"/>
    </g>
   </g>
  </g>
  <text id="text1313" transform="matrix(1 0 0 -1 69.966 275.22)" fill="#646363" font-family="'Proxima Nova'" font-size="10px" font-weight="bold" xml:space="preserve"><tspan id="tspan1311" x="0 7.29 9.8199997 15.67 21.200001 24.799999 27.33" y="0">Nigeria</tspan></text>
  <text id="text1317" transform="matrix(1 0 0 -1 102.73 275.22)" fill="#018eca" font-family="'Proxima Nova'" font-size="10px" style="font-variant-caps:normal;font-variant-east-asian:normal;font-variant-ligatures:normal;font-variant-numeric:normal" xml:space="preserve"><tspan id="tspan1315" x="0 5.6500001 11.61 13.99 20.129999 26.27" y="0">36,000</tspan></text>
  <g id="g1319">
   <g id="g1321" clip-path="url(#clipPath1325)">
    <g id="g1327" transform="translate(197.58 280.56)">
     <path id="path1329" d="m0 0h-48.807c-1.252 0-2.276-1.024-2.276-2.275 0-1.252 1.024-2.276 2.276-2.276h48.807c1.251 0 2.275 1.024 2.275 2.276 0 1.251-1.024 2.275-2.275 2.275" fill="#e6e6e6"/>
    </g>
    <g id="g1331" transform="translate(141.57 274.31)">
     <path id="path1333" d="m0 0v7.939c0 .977.792 1.769 1.769 1.769s1.769-.792 1.769-1.769v-7.939c0-.977-.792-1.769-1.769-1.769s-1.769.792-1.769 1.769" fill="#e6e6e6"/>
    </g>
    <g id="g1335" transform="translate(149.23 276)">
     <path id="path1337" d="m0 0h-.451c-1.252 0-2.276 1.024-2.276 2.276 0 1.251 1.024 2.275 2.276 2.275h1.963v-4.551z" fill="#018eca"/>
    </g>
   </g>
  </g>
  <text id="text1341" transform="matrix(1 0 0 -1 72.726 254.33)" fill="#646363" font-family="'Proxima Nova'" font-size="10px" font-weight="bold" xml:space="preserve"><tspan id="tspan1339" x="0 6 11.79 17.65 23.08 28.870001" y="0">Sudan </tspan></text>
  <text id="text1345" transform="matrix(1 0 0 -1 104.16 254.33)" fill="#018eca" font-family="'Proxima Nova'" font-size="10px" style="font-variant-caps:normal;font-variant-east-asian:normal;font-variant-ligatures:normal;font-variant-numeric:normal" xml:space="preserve"><tspan id="tspan1343" x="0 5.9099998 10.18 12.56 18.700001 24.84" y="0">27,000</tspan></text>
  <g id="g1347">
   <g id="g1349" clip-path="url(#clipPath1353)">
    <g id="g1355" transform="translate(197.58 259.68)">
     <path id="path1357" d="m0 0h-48.807c-1.252 0-2.276-1.024-2.276-2.275 0-1.252 1.024-2.276 2.276-2.276h48.807c1.251 0 2.275 1.024 2.275 2.276 0 1.251-1.024 2.275-2.275 2.275" fill="#e6e6e6"/>
    </g>
    <g id="g1359" transform="translate(141.57 253.43)">
     <path id="path1361" d="m0 0v7.939c0 .977.792 1.769 1.769 1.769s1.769-.792 1.769-1.769v-7.939c0-.977-.792-1.769-1.769-1.769s-1.769.792-1.769 1.769" fill="#e6e6e6"/>
    </g>
    <g id="g1363" transform="translate(149.23 255.13)">
     <path id="path1365" d="m0 0h-.451c-1.252 0-2.276 1.024-2.276 2.276 0 1.251 1.024 2.275 2.276 2.275h1.526v-4.551z" fill="#018eca"/>
    </g>
   </g>
  </g>
  <text id="text1369" transform="matrix(1 0 0 -1 91.585 233.51)" fill="#646363" font-family="'Proxima Nova'" font-size="10px" font-weight="bold" xml:space="preserve"><tspan id="tspan1367" x="0 2.74 6.3400002 11.77 17.620001" y="0">Iraq </tspan></text>
  <text id="text1373" transform="matrix(1 0 0 -1 111.77 233.51)" fill="#018eca" font-family="'Proxima Nova'" font-size="10px" style="font-variant-caps:normal;font-variant-east-asian:normal;font-variant-ligatures:normal;font-variant-numeric:normal" xml:space="preserve"><tspan id="tspan1371" x="0 5.96 7.5 11.09 17.23" y="0">6,100</tspan></text>
  <g id="g1375">
   <g id="g1377" clip-path="url(#clipPath1381)">
    <g id="g1383" transform="translate(197.58 238.66)">
     <path id="path1385" d="m0 0h-48.807c-1.252 0-2.276-1.024-2.276-2.275 0-1.252 1.024-2.276 2.276-2.276h48.807c1.251 0 2.275 1.024 2.275 2.276 0 1.251-1.024 2.275-2.275 2.275" fill="#e6e6e6"/>
    </g>
    <g id="g1387" transform="translate(141.57 232.56)">
     <path id="path1389" d="m0 0v7.939c0 .977.792 1.769 1.769 1.769s1.769-.792 1.769-1.769v-7.939c0-.977-.792-1.769-1.769-1.769s-1.769.792-1.769 1.769" fill="#e6e6e6"/>
    </g>
    <g id="g1391" transform="translate(149.23 234.11)">
     <path id="path1393" d="m0 0h-.451c-1.252 0-2.276 1.024-2.276 2.276 0 1.251 1.024 2.275 2.276 2.275h.451-.2v-4.551z" fill="#018eca"/>
    </g>
   </g>
  </g>
  <text id="text1397" transform="matrix(1 0 0 -1 75.996 212.69)" fill="#646363" font-family="'Proxima Nova'" font-size="10px" font-weight="bold" xml:space="preserve"><tspan id="tspan1395" x="0 5.21 10.74 19.26 24.790001 30.58" y="0">Yemen </tspan></text>
  <text id="text1401" transform="matrix(1 0 0 -1 109.14 212.69)" fill="#018eca" font-family="'Proxima Nova'" font-size="10px" style="font-variant-caps:normal;font-variant-east-asian:normal;font-variant-ligatures:normal;font-variant-numeric:normal" xml:space="preserve"><tspan id="tspan1399" x="0 5.6500001 8.0299997 13.72 19.860001" y="0">3,400</tspan></text>
  <g id="g1403">
   <g id="g1405" clip-path="url(#clipPath1409)">
    <g id="g1411" transform="translate(197.58 218.58)">
     <path id="path1413" d="m0 0h-48.807c-1.252 0-2.276-1.024-2.276-2.275 0-1.252 1.024-2.276 2.276-2.276h48.807c1.251 0 2.275 1.024 2.275 2.276 0 1.251-1.024 2.275-2.275 2.275" fill="#e6e6e6"/>
    </g>
    <g id="g1415" transform="translate(141.57 211.68)">
     <path id="path1417" d="m0 0v7.939c0 .977.792 1.769 1.769 1.769s1.769-.792 1.769-1.769v-7.939c0-.977-.792-1.769-1.769-1.769s-1.769.792-1.769 1.769" fill="#e6e6e6"/>
    </g>
    <g id="g1419" transform="translate(148.32 218.53)">
     <path id="path1421" d="m0 0c-1.034-.213-1.818-1.134-1.818-2.229 0-1.049.639-1.895 1.818-2.229z" fill="#018eca"/>
    </g>
   </g>
  </g>
  <text id="text1425" transform="matrix(1 0 0 -1 72.686 191.6)" fill="#646363" font-family="'Proxima Nova'" font-size="10px" font-weight="bold" xml:space="preserve"><tspan id="tspan1423" x="0 8.5500002 13.68 19.110001 24.9 33.419998 38.849998 42.450001" y="0">Myanmar </tspan></text>
  <text id="text1429" transform="matrix(1 0 0 -1 117.7 191.6)" fill="#018eca" font-family="'Proxima Nova'" font-size="10px" style="font-variant-caps:normal;font-variant-east-asian:normal;font-variant-ligatures:normal;font-variant-numeric:normal" xml:space="preserve"><tspan id="tspan1427" x="0 5.6500001 11.3" y="0">330</tspan></text>
  <g id="g1431">
   <g id="g1433" clip-path="url(#clipPath1437)">
    <g id="g1439" transform="translate(197.58 197.7)">
     <path id="path1441" d="m0 0h-48.807c-1.252 0-2.276-1.024-2.276-2.275 0-1.252 1.024-2.276 2.276-2.276h48.807c1.251 0 2.275 1.024 2.275 2.276 0 1.251-1.024 2.275-2.275 2.275" fill="#e6e6e6"/>
    </g>
    <g id="g1443" transform="translate(141.57 190.81)">
     <path id="path1445" d="m0 0v7.939c0 .977.792 1.769 1.769 1.769s1.769-.792 1.769-1.769v-7.939c0-.977-.792-1.769-1.769-1.769s-1.769.792-1.769 1.769" fill="#e6e6e6"/>
    </g>
    <g id="g1447" transform="translate(147.69 193.43)">
     <path id="path1449" d="m0 0c-.73.425-1.186 1.178-1.186 1.995 0 .875.5 1.639 1.229 2.019z" fill="#018eca"/>
    </g>
   </g>
  </g>
  <text id="text1453" transform="matrix(1 0 0 -1 71.425 171.44)" fill="#646363" font-family="'Proxima Nova'" font-size="10px" font-weight="bold" xml:space="preserve"><tspan id="tspan1451" x="0 6.8699999 12.61 15.14 20.879999 29.4 35.259998 37.790001 43.220001" y="0">Colombia </tspan></text>
  <text id="text1457" transform="matrix(1 0 0 -1 117.21 171.44)" fill="#018eca" font-family="'Proxima Nova'" font-size="10px" style="font-variant-caps:normal;font-variant-east-asian:normal;font-variant-ligatures:normal;font-variant-numeric:normal" xml:space="preserve"><tspan id="tspan1455" x="0 5.9099998 11.79" y="0">280</tspan></text>
  <g id="g1459">
   <g id="g1461" clip-path="url(#clipPath1465)">
    <g id="g1467" transform="translate(197.58 176.03)">
     <path id="path1469" d="m0 0h-48.807c-1.252 0-2.276-1.024-2.276-2.275 0-1.252 1.024-2.276 2.276-2.276h48.807c1.251 0 2.275 1.024 2.275 2.276 0 1.251-1.024 2.275-2.275 2.275" fill="#e6e6e6"/>
    </g>
    <g id="g1471" transform="translate(141.57 169.93)">
     <path id="path1473" d="m0 0v7.939c0 .977.792 1.769 1.769 1.769s1.769-.792 1.769-1.769v-7.939c0-.977-.792-1.769-1.769-1.769s-1.769.792-1.769 1.769" fill="#e6e6e6"/>
    </g>
    <g id="g1475" transform="translate(147.69 171.75)">
     <path id="path1477" d="m0 0c-.73.425-1.186 1.178-1.186 1.995 0 .875.5 1.639 1.229 2.019z" fill="#018eca"/>
    </g>
   </g>
  </g>
 </g>
</svg>
